<svg id="그룹_2091" data-name="그룹 2091" xmlns="http://www.w3.org/2000/svg" width="31.494" height="46.824" viewBox="0 0 31.494 46.824">
  <g id="그룹_2075" data-name="그룹 2075">
    <ellipse id="타원_596" data-name="타원 596" cx="12.978" cy="12.978" rx="12.978" ry="12.978" transform="translate(2.769 10.492)" fill="#fff"/>
    <path id="패스_1289" data-name="패스 1289" d="M-7.575-2.86a45.086,45.086,0,0,1,6.06-.455,53.983,53.983,0,0,1,6.4.455A1.384,1.384,0,0,1,6.269-1.475s.3,2.642.529,4.305,4.482,7.8,4.482,7.8S6.244,4.6-1.515,4.742A16.736,16.736,0,0,0-13.7,10.631s4.059-6.512,4.337-8.223.405-3.883.405-3.883A1.384,1.384,0,0,1-7.575-2.86Z" transform="translate(16.919 3.314)" fill="#0b77d6"/>
    <g id="패스_1288" data-name="패스 1288" transform="translate(0 7.723)" fill="none">
      <path d="M15.747,0A15.747,15.747,0,1,1,0,15.747,15.747,15.747,0,0,1,15.747,0Z" stroke="none"/>
      <path d="M 15.74716758728027 3.999994277954102 C 12.60938835144043 3.999994277954102 9.659418106079102 5.221914291381836 7.440668106079102 7.440664291381836 C 5.221918106079102 9.659404754638672 3.999998092651367 12.609375 3.999998092651367 15.74715518951416 C 3.999998092651367 18.88493537902832 5.221918106079102 21.83489608764648 7.440668106079102 24.05364608764648 C 9.659406661987305 26.27238464355469 12.60938835144043 27.49430465698242 15.74716758728027 27.49430465698242 C 18.88494873046875 27.49430465698242 21.83492660522461 26.27238464355469 24.05366706848145 24.05364608764648 C 26.27241706848145 21.83489608764648 27.49433708190918 18.88493537902832 27.49433708190918 15.74715518951416 C 27.49433708190918 12.609375 26.27241706848145 9.659404754638672 24.05366706848145 7.440664291381836 C 21.83491897583008 5.221914291381836 18.88494873046875 3.999994277954102 15.74716758728027 3.999994277954102 M 15.74716758728027 -5.7220458984375e-06 C 24.44408798217773 -5.7220458984375e-06 31.49433708190918 7.05024528503418 31.49433708190918 15.74715518951416 C 31.49433708190918 24.44406509399414 24.44408798217773 31.49430465698242 15.74716758728027 31.49430465698242 C 7.050247192382812 31.49430465698242 -1.9073486328125e-06 24.44406509399414 -1.9073486328125e-06 15.74715518951416 C -1.9073486328125e-06 7.05024528503418 7.050247192382812 -5.7220458984375e-06 15.74716758728027 -5.7220458984375e-06 Z" stroke="none" fill="#1592e6"/>
    </g>
    <path id="패스_1290" data-name="패스 1290" d="M6.126.455A45.086,45.086,0,0,1,12.186,0a53.983,53.983,0,0,1,6.4.455A1.384,1.384,0,0,1,19.97,1.839s.3,2.642.529,4.305,4.482,7.8,4.482,7.8-5.037-6.028-12.8-5.889A16.736,16.736,0,0,0,0,13.945S4.059,7.434,4.337,5.722s.405-3.883.405-3.883A1.384,1.384,0,0,1,6.126.455Z" transform="translate(28.2 46.824) rotate(180)" fill="#0b77d6"/>
  </g>
  <g id="그룹_1564" data-name="그룹 1564" transform="translate(8.354 18.701)">
    <line id="선_85" data-name="선 85" x2="5.545" y2="7.394" transform="translate(0 2.156)" fill="none" stroke="#ffc03e" stroke-linecap="round" stroke-width="4"/>
    <line id="선_86" data-name="선 86" y1="9.55" x2="9.242" transform="translate(5.545)" fill="none" stroke="#ffc03e" stroke-linecap="round" stroke-width="4"/>
  </g>
</svg>
