<svg xmlns="http://www.w3.org/2000/svg" xmlns:xlink="http://www.w3.org/1999/xlink" width="201.656" height="42.759" viewBox="0 0 201.656 42.759">
  <defs>
    <linearGradient id="linear-gradient" x1="7.529" y1="0.481" x2="6.845" y2="1.767" gradientUnits="objectBoundingBox">
      <stop offset="0" stop-color="#337bb3"/>
      <stop offset="0.454" stop-color="#95bbd7"/>
      <stop offset="0.828" stop-color="#e1ebf3"/>
      <stop offset="1" stop-color="#fff"/>
    </linearGradient>
    <linearGradient id="linear-gradient-2" x1="1534.979" y1="151.23" x2="1325.349" y2="789.704" gradientUnits="objectBoundingBox">
      <stop offset="0" stop-color="#57999b"/>
      <stop offset="0.353" stop-color="#96bfc1"/>
      <stop offset="0.795" stop-color="#e1eded"/>
      <stop offset="1" stop-color="#fff"/>
    </linearGradient>
  </defs>
  <g id="그룹_1078" data-name="그룹 1078" transform="translate(-140.531 -386.938)">
    <g id="그룹_1075" data-name="그룹 1075" transform="translate(140.532 386.938)">
      <g id="그룹_1071" data-name="그룹 1071">
        <g id="Logo">
          <path id="패스_4303" data-name="패스 4303" d="M173.8,388.057c-8.093-2.211-17.462-1.172-24.485,3.349-10.5,6.761-11.771,18.742-2.819,26.731h0l29.889-19.243C181.29,395.738,179.856,389.712,173.8,388.057Z" transform="translate(-140.532 -386.938)" fill="#ffc03e"/>
          <path id="패스_4304" data-name="패스 4304" d="M151.8,435.26c8.092,2.211,17.461,1.172,24.484-3.349,10.5-6.761,11.771-18.742,2.819-26.731h0l-29.889,19.243C144.313,427.579,145.746,433.606,151.8,435.26Z" transform="translate(-142.631 -393.62)" fill="#0077d6"/>
          <g id="그룹_1070" data-name="그룹 1070" transform="translate(3.632 11.56)" style="mix-blend-mode: multiply;isolation: isolate">
            <path id="패스_4305" data-name="패스 4305" d="M151.307,438.744c-2.925-9.488,13.429-20.726,17.923-23.643l-20.014,12.957C144.45,431.125,145.673,436.9,151.307,438.744Z" transform="translate(-146.263 -408.814)" fill="url(#linear-gradient)" style="mix-blend-mode: overlay;isolation: isolate"/>
            <path id="패스_4306" data-name="패스 4306" d="M197.934,405.243l.1-.063h0Z" transform="translate(-165.191 -405.18)" fill="url(#linear-gradient-2)"/>
          </g>
        </g>
      </g>
      <g id="그룹_1074" data-name="그룹 1074" transform="translate(11.134 10.834)">
        <g id="그룹_1072" data-name="그룹 1072" transform="translate(5.57 0.464)">
          <path id="패스_4307" data-name="패스 4307" d="M168.715,407.566v10.969l12.436-5.484Z" transform="translate(-167.559 -405.792)" fill="#fff"/>
          <path id="패스_4308" data-name="패스 4308" d="M168.047,406.541l12.436,5.484-12.436,5.485V406.541m-1.156-1.774v14.516l1.622-.716,12.437-5.484,2.4-1.058-2.4-1.058-12.437-5.485-1.622-.715Z" transform="translate(-166.891 -404.767)"/>
        </g>
        <g id="그룹_1073" data-name="그룹 1073">
          <path id="패스_4309" data-name="패스 4309" d="M164.874,424.453c0-.021.011-.038.011-.06v-17.75a.786.786,0,0,0-.786-.786h-.134a.786.786,0,0,0-.786.786v17.75a.748.748,0,0,0,.017.085c-1.876.157-3.272.72-3.272,1.4,0,.8,1.93,1.445,4.312,1.445s4.312-.647,4.312-1.445C168.548,425.151,166.95,424.557,164.874,424.453Z" transform="translate(-158.769 -404.702)" fill="#fff"/>
          <path id="패스_4310" data-name="패스 4310" d="M163.432,405.19a.786.786,0,0,1,.786.786v17.75c0,.021-.01.038-.011.059,2.076.1,3.674.7,3.674,1.423,0,.8-1.93,1.445-4.312,1.445s-4.312-.647-4.312-1.445c0-.677,1.4-1.241,3.272-1.4a.764.764,0,0,1-.017-.084v-17.75a.786.786,0,0,1,.786-.786h.134m0-1.156H163.3a1.944,1.944,0,0,0-1.942,1.942v16.818c-2.084.361-3.254,1.217-3.254,2.414,0,1.92,2.945,2.6,5.468,2.6s5.467-.682,5.467-2.6c0-1.273-1.347-2.168-3.662-2.478V405.976a1.944,1.944,0,0,0-1.942-1.942Z" transform="translate(-158.101 -404.034)"/>
        </g>
      </g>
    </g>
    <g id="그룹_1076" data-name="그룹 1076" transform="translate(192.87 396.567)">
      <path id="패스_4311" data-name="패스 4311" d="M447.706,414.938a3.155,3.155,0,0,0-1.3-1.948,3.8,3.8,0,0,0-2.31-.65,3.081,3.081,0,0,0-2.092.721,3.445,3.445,0,0,0-1.3,1.876Zm-7.145,2.382a3.375,3.375,0,0,0,1.155,2.238,3.846,3.846,0,0,0,2.454.794,3.7,3.7,0,0,0,1.8-.434,3.355,3.355,0,0,0,1.3-1.154h3.248a7.5,7.5,0,0,1-2.454,3.247,6.318,6.318,0,0,1-3.826,1.155,6.776,6.776,0,0,1-2.67-.505,5.4,5.4,0,0,1-2.165-1.515,7.591,7.591,0,0,1-1.444-2.166,7.909,7.909,0,0,1-.505-2.6,7.48,7.48,0,0,1,.505-2.525,5.84,5.84,0,0,1,1.371-2.093,6.233,6.233,0,0,1,2.237-1.66,6.149,6.149,0,0,1,2.526-.578,6.9,6.9,0,0,1,3.176.794,7.011,7.011,0,0,1,2.454,2.165,5.093,5.093,0,0,1,.939,1.877,7.479,7.479,0,0,1,.288,2.309v.649Z" transform="translate(-301.636 -404.841)" fill="#fff"/>
      <rect id="사각형_2890" data-name="사각형 2890" width="2.959" height="12.826" transform="translate(130.974 5.5)" fill="#fff"/>
      <path id="패스_4312" data-name="패스 4312" d="M431.113,402.133a1.841,1.841,0,0,1,0,3.681,1.841,1.841,0,1,1,0-3.681Z" transform="translate(-298.624 -402.133)" fill="#fff"/>
      <path id="패스_4313" data-name="패스 4313" d="M365.82,409.869a6.712,6.712,0,0,0,.028,13.424,6.516,6.516,0,0,0,3.762-1.155v1.1h2.884V416.58A6.713,6.713,0,0,0,365.82,409.869Zm.037,10.465a3.753,3.753,0,1,1,3.753-3.754A3.728,3.728,0,0,1,365.857,420.334Z" transform="translate(-272.942 -404.967)" fill="#fff"/>
      <path id="패스_4314" data-name="패스 4314" d="M392.9,402.133v6.056a7.167,7.167,0,0,0-3.776-1.154,6.712,6.712,0,1,0,6.659,6.711V402.133Zm-3.8,15.368a3.754,3.754,0,1,1,0-7.507,3.753,3.753,0,0,1,0,7.507Z" transform="translate(-281.47 -402.133)" fill="#fff"/>
      <path id="패스_4315" data-name="패스 4315" d="M416.2,402.133v6.056a7.164,7.164,0,0,0-3.775-1.154,6.712,6.712,0,1,0,6.659,6.711V402.133Zm-3.8,15.368a3.754,3.754,0,1,1,0-7.507,3.753,3.753,0,0,1,0,7.507Z" transform="translate(-290.005 -402.133)" fill="#fff"/>
      <path id="패스_4316" data-name="패스 4316" d="M342.859,409.869a6.671,6.671,0,0,1,6.5,5.051h-3.1a3.754,3.754,0,1,0,0,3.321h3.1a6.672,6.672,0,0,1-6.5,5.052,6.712,6.712,0,1,1,0-13.424Z" transform="translate(-264.525 -404.967)" fill="#fff"/>
      <path id="패스_4317" data-name="패스 4317" d="M318.937,417.411V404.059h3.031v4.186h1.95v2.67h-1.95v6.5c0,.722.29,1.083,1.083,1.083h.867v2.67h-1.155A3.536,3.536,0,0,1,318.937,417.411Z" transform="translate(-258.221 -402.839)" fill="#fff"/>
      <path id="패스_4318" data-name="패스 4318" d="M285.275,409.869a6.712,6.712,0,0,0,.029,13.424,6.514,6.514,0,0,0,3.762-1.155v1.1h2.885V416.58A6.713,6.713,0,0,0,285.275,409.869Zm.037,10.465a3.753,3.753,0,1,1,3.753-3.754A3.728,3.728,0,0,1,285.312,420.334Z" transform="translate(-243.439 -404.967)" fill="#fff"/>
      <path id="패스_4319" data-name="패스 4319" d="M255.64,423.418V415.84a2.712,2.712,0,0,1,2.67-2.671h0a2.727,2.727,0,0,1,2.743,2.671v7.578h2.959v-7.506a5.713,5.713,0,0,0-5.7-5.7h0a5.562,5.562,0,0,0-4.186,1.875,5.566,5.566,0,0,0-4.186-1.875h0a5.714,5.714,0,0,0-5.7,5.7v7.506h3.032V415.84a2.664,2.664,0,0,1,2.67-2.671h0a2.712,2.712,0,0,1,2.67,2.671v.072h0v7.506h3.032Z" transform="translate(-230.857 -405.092)" fill="#fff"/>
      <path id="패스_4320" data-name="패스 4320" d="M223.124,419.117c0,2.814,2.886,4.186,5.774,4.258,3.824,0,5.557-1.949,5.629-3.9.072-3.031-2.815-3.826-5.414-4.186-1.731-.288-2.6-.432-2.526-1.3,0-.866,1.373-1.082,2.165-1.082.938,0,2.31.288,2.31,1.444h2.959c-.073-2.527-2.165-4.186-5.2-4.258-3.031,0-5.124,1.443-5.269,3.753-.288,3.464,3.826,4.042,5.123,4.258,1.733.217,2.67.578,2.816,1.155.145.938-.868,1.3-2.525,1.3-2.166,0-2.743-1.01-2.888-1.444Z" transform="translate(-223.124 -405.05)" fill="#fff"/>
      <path id="패스_4321" data-name="패스 4321" d="M311.049,410.324H308.89c-4.016.019-6.1,3.041-6.1,6.639v6.5h2.959v-6.641c0-2.375.648-3.458,3.159-3.679h2.138Z" transform="translate(-252.307 -405.133)" fill="#fff"/>
    </g>
    <g id="그룹_1077" data-name="그룹 1077" transform="translate(279.054 417.647)">
      <path id="패스_4322" data-name="패스 4322" d="M359.126,438.918h.859v2.85h.02a1.684,1.684,0,0,1,1.561-.75c1.368,0,2.025,1.1,2.025,2.378s-.593,2.54-2.018,2.54a1.872,1.872,0,0,1-1.6-.779h-.011v.667h-.833Zm2.253,2.789c-.94,0-1.394.9-1.394,1.777,0,.788.411,1.757,1.389,1.757.928,0,1.32-1.038,1.3-1.786.02-.852-.347-1.748-1.3-1.748" transform="translate(-359.126 -436.687)" fill="#fff"/>
      <path id="패스_4323" data-name="패스 4323" d="M367.275,448.377a1.166,1.166,0,0,0,.406.071c.767,0,1.034-1.064,1.034-1.163a2.826,2.826,0,0,0-.17-.5l-1.6-4.382h.952l1.26,3.883h.02l1.29-3.883h.881l-1.738,4.791c-.325.908-.67,1.956-1.807,1.956a2.666,2.666,0,0,1-.589-.068Z" transform="translate(-361.991 -437.965)" fill="#fff"/>
      <path id="패스_4324" data-name="패스 4324" d="M381.036,439.5h1.989v2.868c0,1.455-.722,2.281-2.117,2.281s-2.117-.826-2.117-2.281v-4.7a1.981,1.981,0,0,1,2.117-2.271c1.4,0,2.117.828,2.117,2.271v.879h-1.336v-.963c0-.652-.283-.89-.738-.89s-.736.238-.736.89v4.879c0,.635.283.875.736.875s.738-.24.738-.875v-1.678h-.652Z" transform="translate(-366.329 -435.398)" fill="#fff"/>
      <path id="패스_4325" data-name="패스 4325" d="M387.147,437.669a2.159,2.159,0,1,1,4.312,0v4.7a2.16,2.16,0,1,1-4.312,0Zm1.413,4.795c0,.635.286.894.739.894s.736-.259.736-.894v-4.879c0-.652-.282-.89-.736-.89s-.739.238-.739.89Z" transform="translate(-369.39 -435.398)" fill="#fff"/>
      <path id="패스_4326" data-name="패스 4326" d="M395.8,435.558h1.418V443.3h2.331v1.293H395.8Z" transform="translate(-372.562 -435.457)" fill="#fff"/>
      <path id="패스_4327" data-name="패스 4327" d="M404.526,439.569h1.836v1.3h-1.836v3.722h-1.418v-9.035h3.757v1.286h-2.339Z" transform="translate(-375.237 -435.457)" fill="#fff"/>
      <path id="패스_4328" data-name="패스 4328" d="M414.772,437.643v.313a1.8,1.8,0,0,1-.923,1.831,1.823,1.823,0,0,1,1.054,1.94v.726a1.915,1.915,0,0,1-2.154,2.14h-2.232v-9.035h2.146c1.47,0,2.11.7,2.11,2.085m-2.833-.8v2.4h.561c.527,0,.845-.241.845-.963v-.495c0-.66-.22-.944-.717-.944Zm0,3.694V443.3h.81c.482,0,.738-.214.738-.876v-.8c0-.831-.271-1.086-.916-1.086Z" transform="translate(-377.951 -435.457)" fill="#fff"/>
      <path id="패스_4329" data-name="패스 4329" d="M420.521,435.558v6.981c0,.632.275.876.731.876s.729-.244.729-.876v-6.981h1.347v6.876c0,1.445-.722,2.287-2.112,2.287s-2.122-.842-2.122-2.287v-6.876Z" transform="translate(-381.092 -435.457)" fill="#fff"/>
      <path id="패스_4330" data-name="패스 4330" d="M427.712,435.558h2.248c1.42,0,2.111.8,2.111,2.245v4.562c0,1.442-.691,2.227-2.111,2.227h-2.248Zm1.419,1.286V443.3h.8c.449,0,.727-.228.727-.866v-4.706c0-.636-.278-.883-.727-.883Z" transform="translate(-384.249 -435.457)" fill="#fff"/>
      <path id="패스_4331" data-name="패스 4331" d="M436.418,435.558h2.255c1.416,0,2.112.8,2.112,2.245v4.562c0,1.442-.7,2.227-2.112,2.227h-2.255Zm1.425,1.286V443.3h.807c.448,0,.717-.228.717-.866v-4.706c0-.636-.269-.883-.717-.883Z" transform="translate(-387.439 -435.457)" fill="#fff"/>
      <path id="패스_4332" data-name="패스 4332" d="M445.894,441.6l-1.792-6.038h1.49l1.078,4.126,1.085-4.126h1.355l-1.787,6.038v3h-1.428Z" transform="translate(-390.253 -435.457)" fill="#fff"/>
      <path id="패스_4333" data-name="패스 4333" d="M456.284,446.174a1.649,1.649,0,1,1-1.649-1.642,1.623,1.623,0,0,1,1.649,1.642m-3.035,0a1.39,1.39,0,1,0,1.386-1.4,1.381,1.381,0,0,0-1.386,1.4m1.023.95h-.229v-1.9h.721c.433,0,.623.18.623.519a.516.516,0,0,1-.475.542l.561.835h-.268l-.536-.835h-.4Zm.31-1.036c.288,0,.571-.015.571-.34,0-.253-.217-.325-.452-.325h-.429v.665Z" transform="translate(-393.507 -438.744)" fill="#fff"/>
    </g>
  </g>
</svg>
