<svg xmlns="http://www.w3.org/2000/svg" xmlns:xlink="http://www.w3.org/1999/xlink" width="266" height="56.403" viewBox="0 0 266 56.403">
  <defs>
    <linearGradient id="linear-gradient" x1="7.529" y1="0.481" x2="6.845" y2="1.767" gradientUnits="objectBoundingBox">
      <stop offset="0" stop-color="#337bb3"/>
      <stop offset="0.454" stop-color="#95bbd7"/>
      <stop offset="0.828" stop-color="#e1ebf3"/>
      <stop offset="1" stop-color="#fff"/>
    </linearGradient>
    <linearGradient id="linear-gradient-2" x1="1534.979" y1="151.23" x2="1325.349" y2="789.704" gradientUnits="objectBoundingBox">
      <stop offset="0" stop-color="#57999b"/>
      <stop offset="0.353" stop-color="#96bfc1"/>
      <stop offset="0.795" stop-color="#e1eded"/>
      <stop offset="1" stop-color="#fff"/>
    </linearGradient>
  </defs>
  <g id="그룹_2165" data-name="그룹 2165" transform="translate(-140.532 -386.938)">
    <g id="그룹_1075" data-name="그룹 1075" transform="translate(140.532 386.938)">
      <g id="그룹_1071" data-name="그룹 1071">
        <g id="Logo">
          <path id="패스_4303" data-name="패스 4303" d="M184.416,388.414c-10.675-2.917-23.034-1.546-32.3,4.418-13.851,8.918-15.527,24.722-3.719,35.26h0l39.426-25.383C194.295,398.546,192.4,390.6,184.416,388.414Z" transform="translate(-140.532 -386.938)" fill="#ffc03e"/>
          <path id="패스_4304" data-name="패스 4304" d="M153.569,444.858c10.674,2.916,23.033,1.546,32.3-4.418,13.852-8.918,15.528-24.722,3.719-35.26h0l-39.426,25.383C143.691,434.726,145.582,442.676,153.569,444.858Z" transform="translate(-141.472 -389.932)" fill="#0077d6"/>
          <g id="그룹_1070" data-name="그룹 1070" transform="translate(4.791 15.248)" style="mix-blend-mode: multiply;isolation: isolate">
            <path id="패스_4305" data-name="패스 4305" d="M152.916,446.288c-3.858-12.516,17.714-27.339,23.642-31.187l-26.4,17.091C143.872,436.238,145.485,443.861,152.916,446.288Z" transform="translate(-146.263 -406.808)" fill="url(#linear-gradient)" style="mix-blend-mode: overlay;isolation: isolate"/>
            <path id="패스_4306" data-name="패스 4306" d="M197.934,405.263l.13-.083h0Z" transform="translate(-154.743 -405.18)" fill="url(#linear-gradient-2)"/>
          </g>
        </g>
      </g>
      <g id="그룹_1074" data-name="그룹 1074" transform="translate(14.686 14.291)">
        <g id="그룹_1072" data-name="그룹 1072" transform="translate(7.347 0.613)">
          <path id="패스_4307" data-name="패스 4307" d="M168.715,407.566v14.469l16.4-7.234Z" transform="translate(-167.19 -405.226)" fill="#fff"/>
          <path id="패스_4308" data-name="패스 4308" d="M168.416,407.107l16.4,7.234-16.4,7.235V407.107m-1.525-2.34v19.148l2.14-.945,16.405-7.234,3.164-1.4-3.164-1.4-16.405-7.235-2.14-.944Z" transform="translate(-166.891 -404.767)"/>
        </g>
        <g id="그룹_1073" data-name="그룹 1073">
          <path id="패스_4309" data-name="패스 4309" d="M166.453,430.386c0-.028.015-.05.015-.079V406.895a1.036,1.036,0,0,0-1.036-1.036h-.177a1.036,1.036,0,0,0-1.036,1.036v23.413a.972.972,0,0,0,.023.112c-2.475.207-4.316.951-4.316,1.844,0,1.053,2.546,1.907,5.687,1.907s5.687-.853,5.687-1.907C171.3,431.308,169.192,430.524,166.453,430.386Z" transform="translate(-158.4 -404.333)" fill="#fff"/>
          <path id="패스_4310" data-name="패스 4310" d="M165.133,405.559a1.036,1.036,0,0,1,1.036,1.037v23.414c0,.027-.013.05-.015.078,2.738.137,4.847.921,4.847,1.878,0,1.053-2.546,1.907-5.687,1.907s-5.687-.854-5.687-1.907c0-.894,1.841-1.638,4.316-1.844a1.019,1.019,0,0,1-.023-.111V406.6a1.036,1.036,0,0,1,1.036-1.037h.177m0-1.525h-.177a2.564,2.564,0,0,0-2.562,2.561V428.78c-2.748.476-4.292,1.6-4.292,3.185,0,2.533,3.885,3.432,7.212,3.432s7.212-.9,7.212-3.432c0-1.679-1.777-2.86-4.831-3.269V406.6a2.564,2.564,0,0,0-2.562-2.561Z" transform="translate(-158.101 -404.034)"/>
        </g>
      </g>
    </g>
    <g id="그룹_1076" data-name="그룹 1076" transform="translate(209.57 399.639)">
      <path id="패스_4311" data-name="패스 4311" d="M450.976,416.665a4.161,4.161,0,0,0-1.714-2.57,5.018,5.018,0,0,0-3.047-.857,4.064,4.064,0,0,0-2.76.951,4.545,4.545,0,0,0-1.714,2.475Zm-9.425,3.142a4.451,4.451,0,0,0,1.524,2.952,5.072,5.072,0,0,0,3.236,1.047,4.883,4.883,0,0,0,2.38-.573,4.425,4.425,0,0,0,1.714-1.522h4.284A9.888,9.888,0,0,1,451.453,426a8.334,8.334,0,0,1-5.046,1.524,8.937,8.937,0,0,1-3.522-.666,7.119,7.119,0,0,1-2.855-2,10.013,10.013,0,0,1-1.9-2.857,10.432,10.432,0,0,1-.666-3.427,9.865,9.865,0,0,1,.666-3.331,7.7,7.7,0,0,1,1.809-2.761,8.223,8.223,0,0,1,2.951-2.19,8.113,8.113,0,0,1,3.332-.762,9.1,9.1,0,0,1,4.189,1.047,9.247,9.247,0,0,1,3.237,2.856,6.717,6.717,0,0,1,1.238,2.476,9.865,9.865,0,0,1,.38,3.046v.856Z" transform="translate(-258.298 -403.346)"/>
      <rect id="사각형_2890" data-name="사각형 2890" width="3.903" height="16.918" transform="translate(172.764 7.255)"/>
      <path id="패스_4312" data-name="패스 4312" d="M431.712,402.133a2.428,2.428,0,0,1,0,4.856,2.428,2.428,0,1,1,0-4.856Z" transform="translate(-256.949 -402.133)"/>
      <path id="패스_4313" data-name="패스 4313" d="M367.956,409.869a8.853,8.853,0,0,0,.037,17.707,8.6,8.6,0,0,0,4.963-1.523V427.5h3.8v-8.775A8.855,8.855,0,0,0,367.956,409.869Zm.049,13.8a4.951,4.951,0,1,1,4.95-4.952A4.917,4.917,0,0,1,368,423.674Z" transform="translate(-245.443 -403.403)"/>
      <path id="패스_4314" data-name="패스 4314" d="M396.253,402.133v7.989a9.454,9.454,0,0,0-4.98-1.522,8.853,8.853,0,1,0,8.784,8.853V402.133ZM391.244,422.4a4.952,4.952,0,1,1,0-9.9,4.951,4.951,0,0,1,0,9.9Z" transform="translate(-249.263 -402.133)"/>
      <path id="패스_4315" data-name="패스 4315" d="M419.554,402.133v7.989a9.449,9.449,0,0,0-4.979-1.522,8.853,8.853,0,1,0,8.784,8.853V402.133ZM414.546,422.4a4.952,4.952,0,1,1,0-9.9,4.951,4.951,0,0,1,0,9.9Z" transform="translate(-253.088 -402.133)"/>
      <path id="패스_4316" data-name="패스 4316" d="M345,409.869a8.8,8.8,0,0,1,8.568,6.663h-4.093a4.952,4.952,0,1,0,0,4.38h4.093A8.8,8.8,0,0,1,345,427.576a8.853,8.853,0,1,1,0-17.707Z" transform="translate(-241.672 -403.403)"/>
      <path id="패스_4317" data-name="패스 4317" d="M318.937,421.671V404.059h4v5.522h2.572V413.1h-2.572v8.568c0,.953.382,1.429,1.429,1.429h1.143v3.522h-1.524C321.318,426.622,318.937,425.1,318.937,421.671Z" transform="translate(-238.848 -402.449)"/>
      <path id="패스_4318" data-name="패스 4318" d="M287.411,409.869a8.853,8.853,0,0,0,.038,17.707,8.593,8.593,0,0,0,4.962-1.523V427.5h3.805v-8.775A8.855,8.855,0,0,0,287.411,409.869Zm.049,13.8a4.951,4.951,0,1,1,4.951-4.952A4.918,4.918,0,0,1,287.46,423.674Z" transform="translate(-232.225 -403.403)"/>
      <path id="패스_4319" data-name="패스 4319" d="M259.279,427.632v-10a3.577,3.577,0,0,1,3.522-3.523h0a3.6,3.6,0,0,1,3.618,3.523v10h3.9v-9.9a7.536,7.536,0,0,0-7.521-7.52h0a7.337,7.337,0,0,0-5.521,2.473,7.342,7.342,0,0,0-5.522-2.473h0a7.537,7.537,0,0,0-7.522,7.52v9.9h4v-10a3.514,3.514,0,0,1,3.522-3.523h0a3.577,3.577,0,0,1,3.522,3.523v.094h0v9.9h4Z" transform="translate(-226.589 -403.459)"/>
      <path id="패스_4320" data-name="패스 4320" d="M223.124,422c0,3.712,3.807,5.521,7.616,5.617,5.044,0,7.33-2.571,7.425-5.141.1-4-3.714-5.046-7.141-5.522-2.283-.38-3.427-.57-3.332-1.714,0-1.143,1.811-1.428,2.856-1.428,1.237,0,3.048.38,3.048,1.9h3.9c-.1-3.333-2.856-5.521-6.854-5.617-4,0-6.759,1.9-6.95,4.95-.38,4.57,5.046,5.331,6.758,5.616,2.285.286,3.522.762,3.714,1.524.191,1.238-1.144,1.714-3.331,1.714-2.857,0-3.619-1.332-3.81-1.9Z" transform="translate(-223.124 -403.44)"/>
      <path id="패스_4321" data-name="패스 4321" d="M313.683,410.324h-2.847v0c-5.3.025-8.043,4.011-8.043,8.757v8.568h3.9v-8.759c0-3.133.854-4.561,4.167-4.853h2.82Z" transform="translate(-236.198 -403.477)"/>
    </g>
    <g id="그룹_1077" data-name="그룹 1077" transform="translate(323.253 427.445)">
      <path id="패스_4322" data-name="패스 4322" d="M359.126,438.918h1.133v3.76h.027a2.222,2.222,0,0,1,2.059-.99c1.8,0,2.672,1.455,2.672,3.136s-.782,3.35-2.661,3.35a2.469,2.469,0,0,1-2.115-1.028h-.015v.88h-1.1Zm2.972,3.68c-1.24,0-1.839,1.181-1.839,2.344,0,1.039.543,2.318,1.832,2.318,1.224,0,1.741-1.369,1.715-2.356.026-1.124-.458-2.305-1.709-2.305" transform="translate(-359.126 -435.976)"/>
      <path id="패스_4323" data-name="패스 4323" d="M367.379,450.282a1.537,1.537,0,0,0,.536.094c1.012,0,1.363-1.4,1.363-1.534a3.731,3.731,0,0,0-.225-.655l-2.107-5.78H368.2l1.663,5.122h.027l1.7-5.122h1.162l-2.292,6.319c-.429,1.2-.883,2.58-2.383,2.58a3.511,3.511,0,0,1-.777-.089Z" transform="translate(-360.41 -436.548)"/>
      <path id="패스_4324" data-name="패스 4324" d="M381.753,440.8h2.623v3.783c0,1.919-.952,3.009-2.793,3.009s-2.792-1.09-2.792-3.009v-6.195c0-1.9.961-2.995,2.792-2.995s2.793,1.092,2.793,2.995v1.159h-1.763v-1.271c0-.86-.374-1.174-.974-1.174s-.971.314-.971,1.174v6.436c0,.838.373,1.154.971,1.154s.974-.316.974-1.154V442.5h-.86Z" transform="translate(-362.353 -435.398)"/>
      <path id="패스_4325" data-name="패스 4325" d="M387.147,438.393c0-1.9,1-2.995,2.838-2.995s2.85,1.092,2.85,2.995v6.195c0,1.919-1.016,3.009-2.85,3.009s-2.838-1.09-2.838-3.009Zm1.863,6.324c0,.838.377,1.18.975,1.18s.971-.342.971-1.18v-6.436c0-.86-.372-1.174-.971-1.174s-.975.314-.975,1.174Z" transform="translate(-363.725 -435.398)"/>
      <path id="패스_4326" data-name="패스 4326" d="M395.8,435.558h1.871V445.77h3.075v1.705H395.8Z" transform="translate(-365.145 -435.424)"/>
      <path id="패스_4327" data-name="패스 4327" d="M404.979,440.848H407.4v1.717h-2.422v4.91h-1.871V435.558h4.956v1.7h-3.085Z" transform="translate(-366.344 -435.424)"/>
      <path id="패스_4328" data-name="패스 4328" d="M416.13,438.308v.413a2.376,2.376,0,0,1-1.217,2.416c1,.383,1.39,1.286,1.39,2.559v.957a2.526,2.526,0,0,1-2.841,2.823h-2.945V435.558h2.83c1.939,0,2.783.919,2.783,2.75m-3.737-1.054v3.168h.741c.695,0,1.114-.318,1.114-1.27V438.5c0-.87-.29-1.245-.945-1.245Zm0,4.872v3.644h1.069c.636,0,.974-.283.974-1.156v-1.056c0-1.1-.357-1.432-1.208-1.432Z" transform="translate(-367.56 -435.424)"/>
      <path id="패스_4329" data-name="패스 4329" d="M420.977,435.558v9.209c0,.834.363,1.156.964,1.156s.961-.322.961-1.156v-9.209h1.776v9.069c0,1.906-.952,3.017-2.786,3.017s-2.8-1.111-2.8-3.017v-9.069Z" transform="translate(-368.967 -435.424)"/>
      <path id="패스_4330" data-name="패스 4330" d="M427.712,435.558h2.966c1.873,0,2.785,1.05,2.785,2.962v6.018c0,1.9-.912,2.938-2.785,2.938h-2.966Zm1.871,1.7v8.516h1.054c.592,0,.959-.3.959-1.143v-6.208c0-.838-.367-1.165-.959-1.165Z" transform="translate(-370.382 -435.424)"/>
      <path id="패스_4331" data-name="패스 4331" d="M436.418,435.558h2.974c1.867,0,2.786,1.05,2.786,2.962v6.018c0,1.9-.919,2.938-2.786,2.938h-2.974Zm1.88,1.7v8.516h1.065c.591,0,.945-.3.945-1.143v-6.208c0-.838-.354-1.165-.945-1.165Z" transform="translate(-371.81 -435.424)"/>
      <path id="패스_4332" data-name="패스 4332" d="M446.466,443.523l-2.364-7.965h1.965L447.489,441l1.431-5.442h1.787l-2.357,7.965v3.952h-1.884Z" transform="translate(-373.071 -435.424)"/>
      <path id="패스_4333" data-name="패스 4333" d="M457.337,446.7a2.175,2.175,0,1,1-2.175-2.166,2.141,2.141,0,0,1,2.175,2.166m-4,0a1.833,1.833,0,1,0,1.828-1.845,1.822,1.822,0,0,0-1.828,1.845m1.35,1.253h-.3v-2.5h.951c.572,0,.822.237.822.685a.681.681,0,0,1-.627.715l.741,1.1h-.354l-.707-1.1h-.524Zm.41-1.367c.38,0,.753-.019.753-.449,0-.334-.287-.429-.6-.429h-.566v.878Z" transform="translate(-374.529 -436.897)"/>
    </g>
  </g>
</svg>
