<svg xmlns="http://www.w3.org/2000/svg" xmlns:xlink="http://www.w3.org/1999/xlink" width="98" height="98" viewBox="0 0 98 98">
  <defs>
    <clipPath id="clip-path">
      <rect id="사각형_3102" data-name="사각형 3102" width="57.333" height="50.227" fill="#0b77d6"/>
    </clipPath>
  </defs>
  <g id="watch_01_ico_06" transform="translate(14378 2621)">
    <circle id="타원_629" data-name="타원 629" cx="49" cy="49" r="49" transform="translate(-14378 -2621)" fill="#fff"/>
    <g id="그룹_2519" data-name="그룹 2519" transform="translate(-14357.178 -2600.702)" clip-path="url(#clip-path)">
      <path id="패스_4483" data-name="패스 4483" d="M56.139,45.745H1.194A1.194,1.194,0,0,1,0,44.551V40.968a1.2,1.2,0,0,1,.158-.592L9.713,23.653a1.194,1.194,0,0,1,1.037-.6H21.5V25.44H11.443L2.389,41.285v2.071H54.944V41.319L44.736,25.44h-8.9V23.051h9.556a1.2,1.2,0,0,1,1,.548l10.75,16.722a1.194,1.194,0,0,1,.19.646v3.583a1.194,1.194,0,0,1-1.194,1.194" transform="translate(0 4.482)" fill="#0b77d6"/>
      <path id="패스_4484" data-name="패스 4484" d="M24.992,19a5.972,5.972,0,1,1-.029-11.944h.008A5.972,5.972,0,1,1,24.992,19M24.964,9.44a3.5,3.5,0,0,0-3.575,3.579,3.584,3.584,0,1,0,7.167,0A3.5,3.5,0,0,0,24.981,9.44Z" transform="translate(3.694 1.371)" fill="#0b77d6"/>
      <path id="패스_4485" data-name="패스 4485" d="M26.319,40.45l-.983-1.43c-.371-.537-9.087-13.2-10.85-16.026a14.635,14.635,0,0,1-2.414-8.749,14.247,14.247,0,0,1,28.495,0,14.626,14.626,0,0,1-2.414,8.747C36.39,25.818,27.674,38.482,27.3,39.02Zm0-38.061A11.872,11.872,0,0,0,14.461,14.247a12.347,12.347,0,0,0,2.05,7.481c1.39,2.225,7.416,11.021,9.809,14.506,2.392-3.485,8.418-12.281,9.809-14.506a12.341,12.341,0,0,0,2.05-7.48A11.872,11.872,0,0,0,26.319,2.389" transform="translate(2.347 0)" fill="#0b77d6"/>
    </g>
  </g>
</svg>
