<svg xmlns="http://www.w3.org/2000/svg" xmlns:xlink="http://www.w3.org/1999/xlink" width="98" height="98" viewBox="0 0 98 98">
  <defs>
    <clipPath id="clip-path">
      <rect id="사각형_3016" data-name="사각형 3016" width="61.759" height="66.926" fill="#0b77d6"/>
    </clipPath>
  </defs>
  <g id="watch_01_ico_01" transform="translate(14578 2996)">
    <circle id="타원_624" data-name="타원 624" cx="49" cy="49" r="49" transform="translate(-14578 -2996)" fill="#fff"/>
    <g id="그룹_2509" data-name="그룹 2509" transform="translate(-14563.782 -2980.463)">
      <g id="그룹_2221" data-name="그룹 2221" transform="translate(0 0)" clip-path="url(#clip-path)">
        <path id="패스_4378" data-name="패스 4378" d="M43.972,66.926a5.407,5.407,0,0,1-.73-.051A4.7,4.7,0,0,1,39.914,64.8a5.526,5.526,0,0,1-.8-3.82l1.623-10.651L38.94,47.2l.366,3.563c0,.029,0,.056,0,.086a5.251,5.251,0,0,1-1.255,3.506L29.608,64.7A5.257,5.257,0,0,1,25.6,66.565a4.385,4.385,0,0,1-3.144-1.054,4.945,4.945,0,0,1-1.778-3.474,5.2,5.2,0,0,1,1.291-3.677l6.42-8.831.508-13.644a4.867,4.867,0,0,0-.1-.91c-.034-.2-.067-.4-.09-.586-.076-.641-.177-1.344-.279-2.047s-.206-1.429-.284-2.079c-.1-.8-.191-1.4-.287-2-.1-.621-.2-1.242-.3-2.077l-.077-.633c-.056-.464-.114-.928-.165-1.394-.024-.206-.051-.413-.078-.619a8,8,0,0,1,.034-3.241c.025-.1.055-.191.087-.287a5.189,5.189,0,0,1,2.921-3.052,1.021,1.021,0,1,1,.869,1.849,3.174,3.174,0,0,0-1.856,1.865c-.019.054-.035.108-.051.163a6.271,6.271,0,0,0,.02,2.435c.029.22.058.44.083.66.051.458.107.915.163,1.374l.078.637c.1.8.191,1.4.288,2,.1.62.2,1.241.3,2.077.076.635.177,1.332.277,2.03.1.719.208,1.439.286,2.1.019.156.047.32.075.485a6.452,6.452,0,0,1,.128,1.331l-.519,13.952a1.017,1.017,0,0,1-.195.563l-6.652,9.145a3.24,3.24,0,0,0-.854,2.292,2.881,2.881,0,0,0,1.064,2.041,2.374,2.374,0,0,0,1.818.565A3.2,3.2,0,0,0,28.039,63.4l8.449-10.348a3.223,3.223,0,0,0,.781-2.12l-.852-8.3a1.022,1.022,0,0,1,1.9-.613l4.369,7.608a1.019,1.019,0,0,1,.124.663L41.136,61.279a3.471,3.471,0,0,0,.482,2.4,2.65,2.65,0,0,0,1.905,1.174,3.328,3.328,0,0,0,.448.031A2.873,2.873,0,0,0,46.726,62.1l1.959-13.029a3.184,3.184,0,0,0-.86-2.648,1.048,1.048,0,0,1-.11-.137L41.094,36.4a1.023,1.023,0,0,1-.171-.5s0-.079,0-.083l-.007-.087-2.584-12.2a1.021,1.021,0,0,1,.636-1.166l8.8-3.351a3.221,3.221,0,0,0,2.15-3.723L47.7,4.613a2.962,2.962,0,0,0-3.514-2.5,3.01,3.01,0,0,0-2.12,3.807l1.513,7.5a1.021,1.021,0,0,1-.674,1.17c-.957.323-2.311.832-3.622,1.324-1.327.5-2.7,1.014-3.687,1.348a1.022,1.022,0,1,1-.653-1.936C35.9,15,37.259,14.49,38.569,14c.978-.368,1.98-.744,2.835-1.05L40.071,6.332A4.945,4.945,0,1,1,49.7,4.193l2.211,10.677a5.25,5.25,0,0,1-3.461,6.065l-7.948,3.027,2.415,11.406c.006.027.011.055.014.083l0,.038,6.426,9.591a5.226,5.226,0,0,1,1.34,4.285l-1.959,13.03a4.872,4.872,0,0,1-4.776,4.531" transform="translate(-3.775 0)" fill="#0b77d6"/>
        <path id="패스_4379" data-name="패스 4379" d="M44.143,28.084a1.022,1.022,0,0,1-.235-2.016l10.363-2.455a3.227,3.227,0,0,0,2.606-3.367l-.8-10.9a3.222,3.222,0,0,0-2.5-2.928,1.022,1.022,0,0,1,.441-2,5.273,5.273,0,0,1,4.094,4.78l.794,10.9a5.265,5.265,0,0,1-4.208,5.5L44.379,28.056a1.024,1.024,0,0,1-.236.028" transform="translate(-7.878 -0.804)" fill="#0b77d6"/>
        <path id="패스_4380" data-name="패스 4380" d="M30.855,19.915a1,1,0,0,1-.17-.014,7.259,7.259,0,1,1,6.275-1.963,1.022,1.022,0,1,1-1.427-1.462,5.217,5.217,0,0,0-3.578-8.95,5.217,5.217,0,0,0-.932,10.36,1.022,1.022,0,0,1-.168,2.029" transform="translate(-4.5 -1.001)" fill="#0b77d6"/>
        <path id="패스_4381" data-name="패스 4381" d="M2.714,33.181l-.078,0c-.626-.023-1.758-.358-2.3-2.343-1.346-4.9,1.711-7.663,3.516-8.437l1.325-.578.03-.013,14.6-6.362a1.022,1.022,0,0,1,.816,1.873L6.731,23.372a12.71,12.71,0,0,1-.261,5.96c-.687,1.93-2.109,3.85-3.756,3.85m2.074-8.963-.13.056c-.365.163-3.539,1.71-2.356,6.02.167.608.364.82.42.846h.006c.275,0,1.224-.828,1.816-2.494a10.2,10.2,0,0,0,.244-4.428" transform="translate(0 -2.806)" fill="#0b77d6"/>
        <path id="패스_4382" data-name="패스 4382" d="M40.236,10.135a1.022,1.022,0,0,1-.409-1.958l4.225-1.841a1.022,1.022,0,0,1,.816,1.873L40.643,10.05a1.031,1.031,0,0,1-.408.085" transform="translate(-7.164 -1.142)" fill="#0b77d6"/>
        <path id="패스_4383" data-name="패스 4383" d="M71.161,78H68.469a1.022,1.022,0,0,1,0-2.043h2.692a1.022,1.022,0,0,1,0,2.043" transform="translate(-12.322 -13.877)" fill="#0b77d6"/>
        <path id="패스_4384" data-name="패스 4384" d="M70.116,80.8a1.022,1.022,0,0,1-1.022-1.022v-2.8a1.022,1.022,0,0,1,2.043,0v2.8A1.022,1.022,0,0,1,70.116,80.8" transform="translate(-12.622 -13.877)" fill="#0b77d6"/>
        <path id="패스_4385" data-name="패스 4385" d="M69.449,74.421H69.4a4.225,4.225,0,0,1-2.9-7.25,4.277,4.277,0,0,1,3-1.2,4.226,4.226,0,0,1-.053,8.451m0-6.408a2.151,2.151,0,1,0,.029,0h-.029" transform="translate(-11.915 -12.052)" fill="#0b77d6"/>
        <path id="패스_4386" data-name="패스 4386" d="M38.578,30.636a1.022,1.022,0,0,1-.331-1.989l3.835-1.312a1.022,1.022,0,1,1,.662,1.933L38.909,30.58a1.02,1.02,0,0,1-.331.056" transform="translate(-6.861 -4.984)" fill="#0b77d6"/>
      </g>
    </g>
  </g>
</svg>
