<svg xmlns="http://www.w3.org/2000/svg" xmlns:xlink="http://www.w3.org/1999/xlink" width="399.144" height="37.38" viewBox="0 0 399.144 37.38">
  <defs>
    <clipPath id="clip-path">
      <path id="패스_374" data-name="패스 374" d="M777.441,84.919a12.718,12.718,0,1,0,12.714-12.725,12.716,12.716,0,0,0-12.714,12.725" transform="translate(-777.441 -72.194)" fill="none"/>
    </clipPath>
    <linearGradient id="linear-gradient" x1="7.529" y1="0.481" x2="6.845" y2="1.767" gradientUnits="objectBoundingBox">
      <stop offset="0" stop-color="#337bb3"/>
      <stop offset="0.454" stop-color="#95bbd7"/>
      <stop offset="0.828" stop-color="#e1ebf3"/>
      <stop offset="1" stop-color="#fff"/>
    </linearGradient>
    <linearGradient id="linear-gradient-2" x1="1534.979" y1="151.23" x2="1325.349" y2="789.704" gradientUnits="objectBoundingBox">
      <stop offset="0" stop-color="#57999b"/>
      <stop offset="0.353" stop-color="#96bfc1"/>
      <stop offset="0.795" stop-color="#e1eded"/>
      <stop offset="1" stop-color="#fff"/>
    </linearGradient>
  </defs>
  <g id="그룹_2250" data-name="그룹 2250" transform="translate(-492 -1679.31)">
    <g id="img_smartcaddie_logo" transform="translate(114 1654)">
      <text id="smart_caddie" data-name="smart caddie" transform="translate(410.149 55)" font-size="30" font-family="BebasNeue, Bebas Neue"><tspan x="0" y="0">smart caddie</tspan></text>
      <g id="icn_appicon" transform="translate(-399.44 -40.915)">
        <g id="그룹_486" data-name="그룹 486" transform="translate(777.44 72.194)">
          <g id="그룹_485" data-name="그룹 485" clip-path="url(#clip-path)">
            <rect id="사각형_332" data-name="사각형 332" width="13.99" height="27.981" transform="translate(-1.276 -1.266)" fill="#f38200"/>
            <rect id="사각형_333" data-name="사각형 333" width="13.99" height="27.981" transform="translate(12.715 -1.266)" fill="#0054a4"/>
            <rect id="사각형_334" data-name="사각형 334" width="9.162" height="27.981" transform="translate(8.134 -1.266)" fill="#dc0021"/>
          </g>
        </g>
        <path id="패스_375" data-name="패스 375" d="M794.978,75.966a11.37,11.37,0,0,0-13.824,0,6.827,6.827,0,0,0,0,11.134,11.344,11.344,0,0,0,13.824,0,6.823,6.823,0,0,0,0-11.134m-7.491,3.254h-3.319l1.041.918,2.277,2.028v5.05c-4.23-.041-8.433-2.557-8.433-5.637,0-2.615,2.868-4.927,6.726-5.473a12.914,12.914,0,0,1,1.871-.16c.116,0,.246,0,.365.007l.276.014a10.05,10.05,0,0,1,3.964.751,2,2,0,0,1,1.479,2.148c-.161.9-1.137,1.854-2.954,1.854h-2v-1.5Zm1.717,8h-.423V82.341H790.6c1.751,0,3.646.594,3.646,2.281,0,.9-1.233,2.595-5.039,2.595m4.179-6.03a3.048,3.048,0,0,0,2.2-2.506,3.824,3.824,0,0,1,1.287,2.9,3.606,3.606,0,0,1-.782,2.38,3.391,3.391,0,0,0-2.7-2.772" transform="translate(2.025 3.452)" fill="#fff"/>
      </g>
    </g>
    <g id="그룹_1078" data-name="그룹 1078" transform="translate(574.326 1292.372)">
      <g id="그룹_1075" data-name="그룹 1075" transform="translate(140.532 386.938)">
        <g id="그룹_1071" data-name="그룹 1071">
          <g id="Logo">
            <path id="패스_4303" data-name="패스 4303" d="M169.615,387.916c-7.075-1.933-15.265-1.025-21.4,2.928-9.179,5.91-10.29,16.384-2.465,23.368h0l26.129-16.822C176.162,394.631,174.908,389.363,169.615,387.916Z" transform="translate(-140.532 -386.938)" fill="#ffc03e"/>
            <path id="패스_4304" data-name="패스 4304" d="M151.1,431.476c7.074,1.933,15.265,1.025,21.4-2.928,9.18-5.91,10.291-16.384,2.465-23.368h0L148.844,422C144.558,424.761,145.811,430.029,151.1,431.476Z" transform="translate(-143.088 -395.074)" fill="#0077d6"/>
            <g id="그룹_1070" data-name="그룹 1070" transform="translate(3.175 10.106)" style="mix-blend-mode: multiply;isolation: isolate">
              <path id="패스_4305" data-name="패스 4305" d="M150.672,435.77c-2.557-8.295,11.74-18.118,15.668-20.669l-17.5,11.326C144.678,429.109,145.747,434.161,150.672,435.77Z" transform="translate(-146.263 -409.605)" fill="url(#linear-gradient)" style="mix-blend-mode: overlay;isolation: isolate"/>
              <path id="패스_4306" data-name="패스 4306" d="M197.934,405.235l.086-.055h0Z" transform="translate(-169.31 -405.18)" fill="url(#linear-gradient-2)"/>
            </g>
          </g>
        </g>
        <g id="그룹_1074" data-name="그룹 1074" transform="translate(9.733 9.471)">
          <g id="그룹_1072" data-name="그룹 1072" transform="translate(4.869 0.406)">
            <path id="패스_4307" data-name="패스 4307" d="M168.715,407.566v9.589l10.872-4.794Z" transform="translate(-167.705 -406.015)" fill="#fff"/>
            <path id="패스_4308" data-name="패스 4308" d="M167.9,406.318l10.872,4.794L167.9,415.906v-9.589m-1.01-1.551v12.69l1.418-.626,10.872-4.794,2.1-.925-2.1-.925-10.872-4.795-1.418-.625Z" transform="translate(-166.891 -404.767)"/>
          </g>
          <g id="그룹_1073" data-name="그룹 1073">
            <path id="패스_4309" data-name="패스 4309" d="M164.251,422.114c0-.018.01-.033.01-.052V406.545a.687.687,0,0,0-.687-.687h-.117a.687.687,0,0,0-.687.687v15.517a.656.656,0,0,0,.015.074c-1.64.137-2.86.63-2.86,1.222,0,.7,1.687,1.264,3.769,1.264s3.769-.566,3.769-1.264C167.463,422.724,166.066,422.2,164.251,422.114Z" transform="translate(-158.915 -404.848)" fill="#fff"/>
            <path id="패스_4310" data-name="패스 4310" d="M162.761,405.044a.687.687,0,0,1,.687.687v15.517c0,.018-.009.033-.01.051,1.815.091,3.212.611,3.212,1.244,0,.7-1.687,1.264-3.769,1.264s-3.769-.566-3.769-1.264c0-.592,1.22-1.085,2.86-1.222a.668.668,0,0,1-.015-.074V405.731a.687.687,0,0,1,.687-.687h.117m0-1.01h-.117a1.7,1.7,0,0,0-1.7,1.7v14.7c-1.821.316-2.845,1.064-2.845,2.111,0,1.679,2.575,2.275,4.78,2.275s4.78-.6,4.78-2.275c0-1.113-1.178-1.9-3.2-2.167V405.731a1.7,1.7,0,0,0-1.7-1.7Z" transform="translate(-158.101 -404.034)"/>
          </g>
        </g>
      </g>
      <g id="그룹_1076" data-name="그룹 1076" transform="translate(186.285 395.355)">
        <path id="패스_4311" data-name="패스 4311" d="M446.417,414.257a2.758,2.758,0,0,0-1.136-1.7,3.325,3.325,0,0,0-2.019-.568,2.693,2.693,0,0,0-1.829.63,3.012,3.012,0,0,0-1.136,1.64Zm-6.246,2.082a2.95,2.95,0,0,0,1.01,1.957,3.362,3.362,0,0,0,2.145.694,3.237,3.237,0,0,0,1.577-.379,2.933,2.933,0,0,0,1.136-1.009h2.839a6.553,6.553,0,0,1-2.145,2.839,5.523,5.523,0,0,1-3.344,1.01,5.924,5.924,0,0,1-2.334-.442,4.718,4.718,0,0,1-1.892-1.325,6.635,6.635,0,0,1-1.262-1.893,6.914,6.914,0,0,1-.442-2.271,6.539,6.539,0,0,1,.442-2.208,5.105,5.105,0,0,1,1.2-1.83,5.449,5.449,0,0,1,1.956-1.451,5.376,5.376,0,0,1,2.208-.505,6.034,6.034,0,0,1,2.776.694,6.129,6.129,0,0,1,2.145,1.893,4.452,4.452,0,0,1,.82,1.641,6.538,6.538,0,0,1,.252,2.019v.567Z" transform="translate(-318.724 -405.431)"/>
        <rect id="사각형_2890" data-name="사각형 2890" width="2.587" height="11.212" transform="translate(114.496 4.808)"/>
        <path id="패스_4312" data-name="패스 4312" d="M430.877,402.133a1.609,1.609,0,0,1,0,3.218,1.609,1.609,0,1,1,0-3.218Z" transform="translate(-315.057 -402.133)"/>
        <path id="패스_4313" data-name="패스 4313" d="M364.978,409.869A5.867,5.867,0,0,0,365,421.6a5.7,5.7,0,0,0,3.289-1.009v.957h2.521v-5.816A5.869,5.869,0,0,0,364.978,409.869Zm.033,9.149a3.281,3.281,0,1,1,3.281-3.282A3.259,3.259,0,0,1,365.01,419.018Z" transform="translate(-283.785 -405.584)"/>
        <path id="패스_4314" data-name="패스 4314" d="M391.583,402.133v5.294a6.266,6.266,0,0,0-3.3-1.009,5.867,5.867,0,1,0,5.822,5.867V402.133Zm-3.32,13.434a3.282,3.282,0,1,1,0-6.562,3.281,3.281,0,0,1,0,6.562Z" transform="translate(-294.168 -402.133)"/>
        <path id="패스_4315" data-name="패스 4315" d="M414.884,402.133v5.294a6.262,6.262,0,0,0-3.3-1.009,5.867,5.867,0,1,0,5.822,5.867V402.133Zm-3.319,13.434a3.282,3.282,0,1,1,0-6.562,3.281,3.281,0,0,1,0,6.562Z" transform="translate(-304.562 -402.133)"/>
        <path id="패스_4316" data-name="패스 4316" d="M342.014,409.869a5.832,5.832,0,0,1,5.678,4.416H344.98a3.282,3.282,0,1,0,0,2.9h2.713a5.833,5.833,0,0,1-5.678,4.416,5.867,5.867,0,1,1,0-11.735Z" transform="translate(-273.535 -405.584)"/>
        <path id="패스_4317" data-name="패스 4317" d="M318.937,415.731V404.059h2.65v3.659h1.7v2.334h-1.7v5.678c0,.632.253.947.947.947h.758v2.334h-1.01A3.091,3.091,0,0,1,318.937,415.731Z" transform="translate(-265.859 -402.992)"/>
        <path id="패스_4318" data-name="패스 4318" d="M284.433,409.869a5.867,5.867,0,0,0,.025,11.735,5.694,5.694,0,0,0,3.288-1.009v.957h2.522v-5.816A5.869,5.869,0,0,0,284.433,409.869Zm.033,9.149a3.281,3.281,0,1,1,3.281-3.282A3.259,3.259,0,0,1,284.466,419.018Z" transform="translate(-247.86 -405.584)"/>
        <path id="패스_4319" data-name="패스 4319" d="M254.205,421.756v-6.624a2.371,2.371,0,0,1,2.334-2.335h0a2.384,2.384,0,0,1,2.4,2.335v6.624h2.586v-6.562a5,5,0,0,0-4.984-4.984h0a4.863,4.863,0,0,0-3.659,1.639,4.866,4.866,0,0,0-3.66-1.639h0a5,5,0,0,0-4.985,4.984v6.562h2.651v-6.624a2.329,2.329,0,0,1,2.334-2.335h0a2.371,2.371,0,0,1,2.334,2.335v.063h0v6.562h2.65Z" transform="translate(-232.541 -405.736)"/>
        <path id="패스_4320" data-name="패스 4320" d="M223.124,417.982c0,2.46,2.523,3.659,5.047,3.723,3.343,0,4.858-1.7,4.921-3.407.063-2.65-2.461-3.344-4.733-3.66-1.513-.252-2.271-.378-2.208-1.136,0-.757,1.2-.946,1.893-.946.82,0,2.02.252,2.02,1.262h2.586c-.064-2.209-1.893-3.659-4.543-3.723-2.65,0-4.479,1.261-4.606,3.281-.252,3.029,3.344,3.533,4.479,3.722,1.515.189,2.334.505,2.461,1.01.127.82-.758,1.136-2.208,1.136-1.893,0-2.4-.883-2.525-1.262Z" transform="translate(-223.124 -405.685)"/>
        <path id="패스_4321" data-name="패스 4321" d="M310.01,410.324h-1.887c-3.511.017-5.33,2.659-5.33,5.8v5.678h2.587V416c0-2.076.566-3.023,2.762-3.216h1.869Z" transform="translate(-258.659 -405.786)"/>
      </g>
      <g id="그룹_1077" data-name="그룹 1077" transform="translate(261.626 413.783)">
        <path id="패스_4322" data-name="패스 4322" d="M359.126,438.918h.751v2.492h.018a1.472,1.472,0,0,1,1.364-.656c1.2,0,1.771.964,1.771,2.078s-.519,2.22-1.764,2.22a1.636,1.636,0,0,1-1.4-.681h-.01v.583h-.728Zm1.97,2.439c-.822,0-1.219.783-1.219,1.553,0,.689.36,1.536,1.214,1.536.811,0,1.154-.907,1.137-1.562.017-.745-.3-1.528-1.132-1.528" transform="translate(-359.126 -436.968)"/>
        <path id="패스_4323" data-name="패스 4323" d="M367.233,447.625a1.019,1.019,0,0,0,.355.062c.671,0,.9-.93.9-1.017a2.472,2.472,0,0,0-.149-.434l-1.4-3.831h.832l1.1,3.394h.018l1.128-3.394h.77l-1.519,4.188c-.284.794-.586,1.71-1.579,1.71a2.33,2.33,0,0,1-.515-.059Z" transform="translate(-362.614 -438.524)"/>
        <path id="패스_4324" data-name="패스 4324" d="M380.754,438.981h1.738v2.507c0,1.272-.631,1.994-1.851,1.994s-1.85-.722-1.85-1.994v-4.105a1.732,1.732,0,0,1,1.85-1.985c1.22,0,1.851.723,1.851,1.985v.768h-1.168v-.842c0-.57-.248-.778-.645-.778s-.644.208-.644.778v4.265c0,.555.247.764.644.764s.645-.209.645-.764v-1.467h-.57Z" transform="translate(-367.897 -435.398)"/>
        <path id="패스_4325" data-name="패스 4325" d="M387.147,437.383a1.887,1.887,0,1,1,3.77,0v4.105a1.888,1.888,0,1,1-3.77,0Zm1.235,4.191c0,.555.25.782.646.782s.644-.227.644-.782v-4.265c0-.57-.247-.778-.644-.778s-.646.208-.646.778Z" transform="translate(-371.624 -435.398)"/>
        <path id="패스_4326" data-name="패스 4326" d="M395.8,435.558h1.24v6.768h2.038v1.13H395.8Z" transform="translate(-375.486 -435.469)"/>
        <path id="패스_4327" data-name="패스 4327" d="M404.347,439.064h1.605V440.2h-1.605v3.254h-1.24v-7.9h3.284v1.124h-2.045Z" transform="translate(-378.743 -435.469)"/>
        <path id="패스_4328" data-name="패스 4328" d="M414.237,437.381v.274a1.575,1.575,0,0,1-.807,1.6,1.594,1.594,0,0,1,.921,1.7v.634a1.674,1.674,0,0,1-1.883,1.871h-1.952v-7.9h1.876c1.285,0,1.844.609,1.844,1.823m-2.477-.7v2.1h.491c.46,0,.738-.211.738-.841v-.433c0-.577-.192-.825-.627-.825Zm0,3.229v2.415h.709c.422,0,.645-.187.645-.766v-.7c0-.727-.237-.949-.8-.949Z" transform="translate(-382.048 -435.469)"/>
        <path id="패스_4329" data-name="패스 4329" d="M420.342,435.558v6.1c0,.553.24.766.639.766s.637-.213.637-.766v-6.1h1.177v6.011c0,1.263-.631,2-1.846,2s-1.855-.736-1.855-2v-6.011Z" transform="translate(-385.873 -435.469)"/>
        <path id="패스_4330" data-name="패스 4330" d="M427.712,435.558h1.965c1.241,0,1.846.7,1.846,1.963v3.988c0,1.26-.6,1.947-1.846,1.947h-1.965Zm1.24,1.124v5.644h.7c.392,0,.635-.2.635-.757v-4.114c0-.556-.243-.772-.635-.772Z" transform="translate(-389.717 -435.469)"/>
        <path id="패스_4331" data-name="패스 4331" d="M436.418,435.558h1.971c1.238,0,1.846.7,1.846,1.963v3.988c0,1.26-.609,1.947-1.846,1.947h-1.971Zm1.246,1.124v5.644h.706c.392,0,.627-.2.627-.757v-4.114c0-.556-.235-.772-.627-.772Z" transform="translate(-393.601 -435.469)"/>
        <path id="패스_4332" data-name="패스 4332" d="M445.668,440.837l-1.567-5.279h1.3l.943,3.607.948-3.607h1.184l-1.562,5.279v2.619h-1.249Z" transform="translate(-397.028 -435.469)"/>
        <path id="패스_4333" data-name="패스 4333" d="M455.869,445.967a1.442,1.442,0,1,1-1.441-1.435,1.419,1.419,0,0,1,1.441,1.435m-2.653,0a1.215,1.215,0,1,0,1.212-1.223,1.207,1.207,0,0,0-1.212,1.223m.895.83h-.2v-1.657h.63c.379,0,.545.157.545.454a.451.451,0,0,1-.415.474l.491.73h-.234l-.469-.73h-.347Zm.271-.906c.252,0,.5-.013.5-.3,0-.222-.19-.284-.4-.284h-.375v.582Z" transform="translate(-400.99 -439.472)"/>
      </g>
    </g>
    <path id="다각형_1" data-name="다각형 1" d="M9,0l9,16H0Z" transform="translate(696 1688) rotate(90)" fill="#ff3e3e"/>
  </g>
</svg>
