<svg xmlns="http://www.w3.org/2000/svg" xmlns:xlink="http://www.w3.org/1999/xlink" width="98" height="98" viewBox="0 0 98 98">
  <defs>
    <clipPath id="clip-path">
      <rect id="사각형_3019" data-name="사각형 3019" width="55.618" height="41.995" fill="#0b77d6"/>
    </clipPath>
  </defs>
  <g id="watch_01_ico_04" transform="translate(14115 2980)">
    <circle id="타원_627" data-name="타원 627" cx="49" cy="49" r="49" transform="translate(-14115 -2980)" fill="#fff"/>
    <g id="그룹_2515" data-name="그룹 2515" transform="translate(-14093.809 -2951.498)">
      <g id="그룹_2227" data-name="그룹 2227" transform="translate(0 0)" clip-path="url(#clip-path)">
        <path id="패스_4405" data-name="패스 4405" d="M7.943,0H1.107A1.107,1.107,0,0,0,0,1.107V40.888a1.107,1.107,0,0,0,1.107,1.107h53.4a1.107,1.107,0,0,0,1.107-1.107V1.107A1.107,1.107,0,0,0,54.511,0H47.675M15.446,0H10.157M22.95,0H17.661M30.453,0H25.165M37.957,0H32.668M45.46,0H40.171M53.4,39.78H2.215V2.215H7.943V3.652a1.107,1.107,0,1,0,2.215,0V2.215h5.289V3.652a1.107,1.107,0,1,0,2.215,0V2.215H22.95V3.652a1.107,1.107,0,1,0,2.215,0V2.215h5.289V3.652a1.107,1.107,0,1,0,2.215,0V2.215h5.289V3.652a1.107,1.107,0,1,0,2.215,0V2.215H45.46V3.652a1.107,1.107,0,1,0,2.215,0V2.215H53.4Z" transform="translate(0 0)" fill="#0b77d6"/>
        <path id="패스_4406" data-name="패스 4406" d="M40.368,14.675h-6.44a1.108,1.108,0,0,0-1.108,1.108v6.44a1.108,1.108,0,0,0,1.108,1.108h6.44a1.108,1.108,0,0,0,1.108-1.108v-6.44a1.108,1.108,0,0,0-1.108-1.108m-1.107,6.44H35.036V16.89h4.226Z" transform="translate(-15.166 -6.781)" fill="#0b77d6"/>
        <path id="패스_4407" data-name="패스 4407" d="M62.033,14.675h-6.44a1.107,1.107,0,0,0-1.107,1.108v6.44a1.107,1.107,0,0,0,1.107,1.108h6.44a1.107,1.107,0,0,0,1.107-1.108v-6.44a1.107,1.107,0,0,0-1.107-1.108m-1.108,6.44H56.7V16.89h4.226Z" transform="translate(-25.177 -6.781)" fill="#0b77d6"/>
        <path id="패스_4408" data-name="패스 4408" d="M76.151,15.783v6.44a1.107,1.107,0,0,0,1.107,1.108H83.7a1.108,1.108,0,0,0,1.107-1.108v-6.44A1.108,1.108,0,0,0,83.7,14.675h-6.44a1.107,1.107,0,0,0-1.107,1.108m2.215,1.108h4.225v4.226H78.366Z" transform="translate(-35.189 -6.781)" fill="#0b77d6"/>
        <path id="패스_4409" data-name="패스 4409" d="M18.7,33.365h-6.44a1.107,1.107,0,0,0-1.108,1.107v6.44a1.108,1.108,0,0,0,1.108,1.108H18.7a1.108,1.108,0,0,0,1.107-1.108v-6.44A1.107,1.107,0,0,0,18.7,33.365M17.6,39.8H13.371V35.58H17.6Z" transform="translate(-5.155 -15.418)" fill="#0b77d6"/>
        <path id="패스_4410" data-name="패스 4410" d="M40.368,33.365h-6.44a1.107,1.107,0,0,0-1.108,1.107v6.44a1.108,1.108,0,0,0,1.108,1.108h6.44a1.108,1.108,0,0,0,1.108-1.108v-6.44a1.107,1.107,0,0,0-1.108-1.107M39.261,39.8H35.036V35.58h4.226Z" transform="translate(-15.166 -15.418)" fill="#0b77d6"/>
        <path id="패스_4411" data-name="패스 4411" d="M62.033,33.365h-6.44a1.107,1.107,0,0,0-1.107,1.107v6.44a1.107,1.107,0,0,0,1.107,1.108h6.44a1.107,1.107,0,0,0,1.107-1.108v-6.44a1.107,1.107,0,0,0-1.107-1.107M60.926,39.8H56.7V35.58h4.226Z" transform="translate(-25.177 -15.418)" fill="#0b77d6"/>
        <path id="패스_4412" data-name="패스 4412" d="M83.7,33.365h-6.44a1.107,1.107,0,0,0-1.107,1.107v6.44a1.107,1.107,0,0,0,1.107,1.108H83.7a1.108,1.108,0,0,0,1.107-1.108v-6.44A1.107,1.107,0,0,0,83.7,33.365M82.591,39.8H78.366V35.58h4.225Z" transform="translate(-35.189 -15.418)" fill="#0b77d6"/>
        <path id="패스_4413" data-name="패스 4413" d="M18.7,52.1h-6.44a1.108,1.108,0,0,0-1.108,1.108v6.44a1.107,1.107,0,0,0,1.108,1.107H18.7a1.107,1.107,0,0,0,1.107-1.107v-6.44A1.108,1.108,0,0,0,18.7,52.1M17.6,58.54H13.371V54.315H17.6Z" transform="translate(-5.155 -24.075)" fill="#0b77d6"/>
        <path id="패스_4414" data-name="패스 4414" d="M40.368,52.1h-6.44a1.108,1.108,0,0,0-1.108,1.108v6.44a1.107,1.107,0,0,0,1.108,1.107h6.44a1.107,1.107,0,0,0,1.108-1.107v-6.44A1.108,1.108,0,0,0,40.368,52.1m-1.107,6.44H35.036V54.315h4.226Z" transform="translate(-15.166 -24.075)" fill="#0b77d6"/>
        <path id="패스_4415" data-name="패스 4415" d="M62.033,52.1h-6.44a1.107,1.107,0,0,0-1.107,1.108v6.44a1.107,1.107,0,0,0,1.107,1.107h6.44a1.107,1.107,0,0,0,1.107-1.107v-6.44A1.107,1.107,0,0,0,62.033,52.1m-1.108,6.44H56.7V54.315h4.226Z" transform="translate(-25.177 -24.075)" fill="#0b77d6"/>
      </g>
    </g>
  </g>
</svg>
