<svg xmlns="http://www.w3.org/2000/svg" xmlns:xlink="http://www.w3.org/1999/xlink" width="98" height="98" viewBox="0 0 98 98">
  <defs>
    <clipPath id="clip-path">
      <rect id="사각형_3103" data-name="사각형 3103" width="44.123" height="77.955" transform="translate(0 0.001)" fill="#0b77d6"/>
    </clipPath>
  </defs>
  <g id="watch_01_ico_07" transform="translate(14138 2333)">
    <circle id="타원_630" data-name="타원 630" cx="49" cy="49" r="49" transform="translate(-14138 -2333)" fill="#fff"/>
    <g id="그룹_2521" data-name="그룹 2521" transform="translate(-14110.573 -2322.978)" clip-path="url(#clip-path)">
      <path id="패스_4486" data-name="패스 4486" d="M32.429,77.956H12.845a4.543,4.543,0,0,1-4.538-4.537V30.247a2.323,2.323,0,0,1,2.814-2.275c1.355.3,4.77.8,12.418.8,6.43,0,9.315-.344,10.6-.633a2.3,2.3,0,0,1,1.952.451,2.321,2.321,0,0,1,.872,1.82v14.8a1.25,1.25,0,0,1-2.5,0V30.621a62.865,62.865,0,0,1-10.927.646c-7.19,0-10.877-.428-12.732-.806V73.419a2.04,2.04,0,0,0,2.038,2.037H32.429a2.04,2.04,0,0,0,2.037-2.037V67.243a1.25,1.25,0,0,1,2.5,0v6.176a4.542,4.542,0,0,1-4.537,4.537" fill="#0b77d6"/>
      <path id="패스_4487" data-name="패스 4487" d="M36.328,67.876h-5.3a4.2,4.2,0,0,1-4.2-4.195V49.11a4.2,4.2,0,0,1,4.2-4.195h5.3a4.843,4.843,0,0,1,4.838,4.838V63.038a4.843,4.843,0,0,1-4.838,4.838m-5.3-20.461a1.7,1.7,0,0,0-1.7,1.695V63.681a1.7,1.7,0,0,0,1.7,1.695h5.3a2.341,2.341,0,0,0,2.338-2.338V49.753a2.341,2.341,0,0,0-2.338-2.338Z" fill="#0b77d6"/>
      <path id="패스_4488" data-name="패스 4488" d="M16.911,31.113a1.25,1.25,0,0,1-1.244-1.149l-.8-9.917a13.756,13.756,0,0,1-8.032.59,3.465,3.465,0,0,1-2.539-2.2,5.03,5.03,0,0,1,.346-4.6c.994-1.393,2.908-2.105,5.852-2.177,1.3-.032,2.5-.032,3.561,0a2.956,2.956,0,0,1,2.864,2.756l1.244,15.341a1.25,1.25,0,0,1-1.145,1.347c-.035,0-.068,0-.1,0M12.364,14.142c-.576,0-1.182.008-1.812.023-2.584.063-3.536.649-3.878,1.13a2.778,2.778,0,0,0,0,2.391c.063.2.4.411.891.561a11.391,11.391,0,0,0,7.083-.84l-.227-2.8a.465.465,0,0,0-.444-.447c-.507-.015-1.046-.022-1.614-.022" fill="#0b77d6"/>
      <path id="패스_4489" data-name="패스 4489" d="M29.971,30.418c-.034,0-.069,0-.1,0a1.251,1.251,0,0,1-1.145-1.347L30.164,11.31A3.106,3.106,0,0,1,33.18,8.422c1.156-.033,2.461-.031,3.881,0,3.175.08,5.235.843,6.3,2.333.881,1.237,1,2.892.358,4.919A3.672,3.672,0,0,1,41.018,18a14.872,14.872,0,0,1-8.831-.7l-.972,11.973a1.25,1.25,0,0,1-1.244,1.149M32.4,14.642a12.283,12.283,0,0,0,7.883.965c.585-.179.967-.429,1.048-.686a3.127,3.127,0,0,0-.012-2.711c-.558-.783-2.053-1.227-4.323-1.285-1.375-.035-2.635-.036-3.746,0a.619.619,0,0,0-.6.58Z" fill="#0b77d6"/>
      <path id="패스_4490" data-name="패스 4490" d="M24.244,31.113h-.032a1.25,1.25,0,0,1-1.218-1.281l.517-20.469a14.892,14.892,0,0,1-8.8-.168,3.675,3.675,0,0,1-2.463-2.569c-.446-2.079-.167-3.714.829-4.861C14.277.384,16.4-.175,19.569.047c1.41.1,2.71.225,3.863.37a3.111,3.111,0,0,1,2.725,3.175L26.062,7.36a1.222,1.222,0,0,1-.007.242L25.493,29.9a1.25,1.25,0,0,1-1.249,1.218M18.263,2.5c-1.648,0-2.779.308-3.3.906a3.128,3.128,0,0,0-.273,2.7c.057.264.413.549.978.784A12.3,12.3,0,0,0,23.577,6.7l.081-3.166a.62.62,0,0,0-.537-.634c-1.109-.139-2.363-.259-3.729-.356q-.6-.042-1.129-.042" fill="#0b77d6"/>
      <path id="패스_4491" data-name="패스 4491" d="M9.554,75.764a1.231,1.231,0,0,1-.67-.2C8.469,75.3-1.267,68.835.139,48.966.807,39.524,2.821,33.3,6.125,30.458A5.13,5.13,0,0,1,9.658,29,1.25,1.25,0,0,1,9.5,31.5c-.186.006-5.642.384-6.863,17.647-1.293,18.274,7.515,24.265,7.6,24.323a1.251,1.251,0,0,1-.683,2.3" fill="#0b77d6"/>
    </g>
  </g>
</svg>
