<svg xmlns="http://www.w3.org/2000/svg" width="98" height="98" viewBox="0 0 98 98">
  <g id="watch_01_ico_09" transform="translate(14046 2429)">
    <circle id="타원_632" data-name="타원 632" cx="49" cy="49" r="49" transform="translate(-14046 -2429)" fill="#fff"/>
    <g id="그룹_2525" data-name="그룹 2525" transform="translate(-14233.012 -9694.421)">
      <g id="타원_596" data-name="타원 596" transform="translate(217.153 7295.649)" fill="none" stroke="#0b77d6" stroke-width="2">
        <ellipse cx="19.358" cy="19.358" rx="19.358" ry="19.358" stroke="none"/>
        <ellipse cx="19.358" cy="19.358" rx="18.358" ry="18.358" fill="none"/>
      </g>
      <g id="패스_1289" data-name="패스 1289" transform="translate(231.524 7283.314)" fill="none" stroke-linejoin="round">
        <path d="M-4.563-2.636a67.25,67.25,0,0,1,9.038-.679,80.52,80.52,0,0,1,9.546.679A2.065,2.065,0,0,1,16.085-.571s.449,3.941.789,6.422,6.686,11.635,6.686,11.635S16.048,8.5,4.475,8.7A24.963,24.963,0,0,0-13.7,17.486S-7.646,7.773-7.233,5.22s.6-5.791.6-5.791A2.065,2.065,0,0,1-4.563-2.636Z" stroke="none"/>
        <path d="M 4.474986553192139 -3.314453125 C -0.1710138320922852 -3.314453125 -4.563433647155762 -2.635902404785156 -4.563433647155762 -2.635902404785156 C -5.703843116760254 -2.635902404785156 -6.628322601318359 -1.711422920227051 -6.628322601318359 -0.5710124969482422 C -6.628322601318359 -0.5710124969482422 -6.81938362121582 2.66746711730957 -7.232772827148438 5.22034740447998 C -7.646152496337891 7.77321720123291 -13.70117378234863 17.48564720153809 -13.70117378234863 17.48564720153809 C -13.70117378234863 17.48564720153809 -7.098163604736328 8.908506393432617 4.474986553192139 8.701816558837891 C 16.04811096191406 8.495153427124023 23.56057739257812 17.48564720153809 23.56057739257812 17.48564720153809 C 23.56057739257812 17.48564720153809 17.2156867980957 8.330777168273926 16.87489700317383 5.850497245788574 C 16.53411674499512 3.370217323303223 16.08544540405273 -0.5710124969482422 16.08544540405273 -0.5710124969482422 C 16.08544540405273 -1.711422920227051 15.16096687316895 -2.635902404785156 14.02055644989014 -2.635902404785156 C 14.02055644989014 -2.635902404785156 9.120986938476562 -3.314453125 4.474986553192139 -3.314453125 M 4.474986553192139 -5.314453125 C 8.859782218933105 -5.314453125 13.37808609008789 -4.739431381225586 14.17722702026367 -4.632925033569336 C 16.30246734619141 -4.552083969116211 18.01482963562012 -2.831991195678711 18.08331298828125 -0.7036628723144531 C 18.15331268310547 -0.09310436248779297 18.55148315429688 3.359836578369141 18.85628700256348 5.578267097473145 C 18.87419700622559 5.696367263793945 19.11737632751465 6.875826835632324 22.05717658996582 11.56313705444336 C 23.63724517822266 14.08243751525879 25.18889617919922 16.32403755187988 25.20437622070312 16.34638786315918 C 25.81362533569336 17.22545623779297 25.62343597412109 18.42827606201172 24.77269744873047 19.07648658752441 C 23.92194557189941 19.72469711303711 22.71178817749023 19.5888557434082 22.02592658996582 18.76816749572754 C 22.01137542724609 18.75092697143555 20.26326751708984 16.695556640625 17.24767684936523 14.68014717102051 C 13.29432678222656 12.03798675537109 9.129186630249023 10.69830703735352 4.867966651916504 10.69830703735352 C 4.747746467590332 10.69830703735352 4.630886554718018 10.6993465423584 4.510716438293457 10.70149707794189 C 0.1634464263916016 10.77913665771484 -3.941873550415039 12.1344165802002 -7.691213607788086 14.72969722747803 C -10.50180244445801 16.6751766204834 -12.06093788146973 18.63534736633301 -12.11823654174805 18.70809364318848 C -12.76569747924805 19.55612945556641 -13.96186065673828 19.74234390258789 -14.84036254882812 19.13618659973145 C -15.71972274780273 18.52943801879883 -15.96355247497559 17.33426666259766 -15.39839363098145 16.42761611938477 C -15.38341331481934 16.40356636047363 -13.88205337524414 13.99238681793213 -12.35377311706543 11.30978679656982 C -9.549472808837891 6.387396812438965 -9.240512847900391 5.107287406921387 -9.207054138183594 4.900656700134277 C -8.841381072998047 2.642437934875488 -8.652721405029297 -0.2426910400390625 -8.627704620361328 -0.6424770355224609 C -8.590541839599609 -2.793216705322266 -6.874439239501953 -4.542020797729492 -4.736793518066406 -4.632253646850586 C -3.946133613586426 -4.748565673828125 0.1250076293945312 -5.314453125 4.474986553192139 -5.314453125 Z" stroke="none" fill="#0b77d6"/>
      </g>
      <path id="패스_1288" data-name="패스 1288" d="M23.488,0A23.488,23.488,0,1,1,0,23.488,23.488,23.488,0,0,1,23.488,0Z" transform="translate(213.023 7291.519)" fill="none" stroke="#0b77d6" stroke-width="3"/>
      <g id="패스_1290" data-name="패스 1290" transform="translate(255.086 7349.841) rotate(180)" fill="none" stroke-linecap="round" stroke-linejoin="round">
        <path d="M9.138.679A67.25,67.25,0,0,1,18.176,0a80.52,80.52,0,0,1,9.546.679,2.065,2.065,0,0,1,2.065,2.065s.449,3.941.789,6.422S37.262,20.8,37.262,20.8s-7.512-8.991-19.086-8.784A24.963,24.963,0,0,0,0,20.8S6.055,11.088,6.468,8.535s.6-5.791.6-5.791A2.065,2.065,0,0,1,9.138.679Z" stroke="none"/>
        <path d="M 18.17616081237793 1.9073486328125e-06 C 13.53016090393066 1.9073486328125e-06 9.137741088867188 0.6785507202148438 9.137741088867188 0.6785507202148438 C 7.997329711914062 0.6785507202148438 7.072851181030273 1.603031158447266 7.072851181030273 2.743431091308594 C 7.072851181030273 2.743431091308594 6.881790161132812 5.981921195983887 6.468410491943359 8.534801483154297 C 6.055021286010742 11.08767127990723 0 20.80010032653809 0 20.80010032653809 C 0 20.80010032653809 6.603010177612305 12.22296142578125 18.17616081237793 12.01627159118652 C 29.74913024902344 11.80954456329346 37.26176071166992 20.80010032653809 37.26176071166992 20.80010032653809 C 37.26176071166992 20.80010032653809 30.91686058044434 11.64523124694824 30.57608032226562 9.164951324462891 C 30.23529052734375 6.684660911560059 29.78662109375 2.743431091308594 29.78662109375 2.743431091308594 C 29.78662109375 1.603031158447266 28.86214065551758 0.6785507202148438 27.72172927856445 0.6785507202148438 C 27.72172927856445 0.6785507202148438 22.8221607208252 1.9073486328125e-06 18.17616081237793 1.9073486328125e-06 M 18.17616081237793 -1.999998092651367 C 22.56095504760742 -1.999998092651367 27.07925987243652 -1.424978256225586 27.87840270996094 -1.318470001220703 C 30.00364112854004 -1.237630844116211 31.71600341796875 0.4824619293212891 31.78448486328125 2.610780715942383 C 31.85448837280273 3.221340179443359 32.25265884399414 6.674281120300293 32.55746078491211 8.89271068572998 C 32.57535171508789 9.010651588439941 32.81809234619141 10.18821144104004 35.75102996826172 14.86590099334717 C 37.33121109008789 17.38610076904297 38.89004898071289 19.63845062255859 38.90560913085938 19.6609001159668 C 39.5147705078125 20.53999137878418 39.32453918457031 21.74280166625977 38.47378921508789 22.39095115661621 C 37.62305068969727 23.03911209106445 36.41294860839844 22.90329170227051 35.72711181640625 22.08262062072754 C 35.71255874633789 22.06538200378418 33.96445083618164 20.0100212097168 30.94886016845703 17.99460029602051 C 26.9955005645752 15.35245132446289 22.83036041259766 14.01276111602783 18.56913948059082 14.01276111602783 C 18.44892120361328 14.01276111602783 18.33205986022949 14.01380157470703 18.21189117431641 14.01595115661621 C 13.86462020874023 14.09359169006348 9.759300231933594 15.44887161254883 6.009960174560547 18.04415130615234 C 3.199371337890625 19.9896297454834 1.640235900878906 21.94980049133301 1.582939147949219 22.02254676818848 C 0.9354743957519531 22.87058448791504 -0.2606849670410156 23.05679702758789 -1.139190673828125 22.45064163208008 C -2.018550872802734 21.84389114379883 -2.262378692626953 20.64872169494629 -1.697219848632812 19.7420711517334 C -1.682239532470703 19.71802139282227 -0.1808815002441406 17.30684089660645 1.347400665283203 14.62424087524414 C 4.151699066162109 9.701841354370117 4.460670471191406 8.421730995178223 4.494129180908203 8.21510124206543 C 4.859794616699219 5.956900596618652 5.048454284667969 3.071754455566406 5.073471069335938 2.671966552734375 C 5.110633850097656 0.5212364196777344 6.82673454284668 -1.227567672729492 8.964380264282227 -1.317800521850586 C 9.755041122436523 -1.434110641479492 13.82618141174316 -1.999998092651367 18.17616081237793 -1.999998092651367 Z" stroke="none" fill="#0b77d6"/>
      </g>
    </g>
  </g>
</svg>
