<svg xmlns="http://www.w3.org/2000/svg" xmlns:xlink="http://www.w3.org/1999/xlink" width="98" height="98" viewBox="0 0 98 98">
  <defs>
    <clipPath id="clip-path">
      <rect id="사각형_3020" data-name="사각형 3020" width="59.477" height="53.306" fill="#0b77d6"/>
    </clipPath>
  </defs>
  <g id="watch_01_ico_05" transform="translate(13961 2980)">
    <circle id="타원_628" data-name="타원 628" cx="49" cy="49" r="49" transform="translate(-13961 -2980)" fill="#fff"/>
    <g id="그룹_2517" data-name="그룹 2517" transform="translate(-13941.667 -2957.153)">
      <g id="그룹_2229" data-name="그룹 2229" transform="translate(0 0)" clip-path="url(#clip-path)">
        <path id="패스_4416" data-name="패스 4416" d="M51.562,2.4A27.935,27.935,0,0,0,39.895,5.3a17.548,17.548,0,0,0-8.751,16.095s.938,5.937,3.438,8.594,2.188,12.188-.625,15.157l19.532.782c.391-2.442,2.491-3.052,4.7-3.052a23.2,23.2,0,0,1,3.74.4,5.035,5.035,0,0,0,.83.072c2.252,0,3.323-1.738,2.763-3.979-.1-.415-.377-1.345.025-1.707s.892.03,1.047-.662a5.9,5.9,0,0,0,.026-1.382h0a3.332,3.332,0,0,0,1.265-.7c.167-.276-.17-.7-.25-.959a8.806,8.806,0,0,1-.39-1.621c-.156-1.406,2.187-.312,2.969-1.563S68.8,26.547,67.4,24.672s0-5.625-.156-8.281S66.146,7.016,57.864,3.578a16.375,16.375,0,0,0-6.3-1.182m0-2.4a18.727,18.727,0,0,1,7.22,1.365C65.376,4.1,69.228,9.388,69.632,16.25a19.231,19.231,0,0,1-.247,3.571c-.137,1.044-.392,2.987-.073,3.413,1.941,2.586,4.6,6.129,2.927,8.8a3.675,3.675,0,0,1-2.133,1.588,2.815,2.815,0,0,1-.175,2.523,3.183,3.183,0,0,1-.94.959,3.124,3.124,0,0,1-.06.406,3.056,3.056,0,0,1-1,1.676,5.618,5.618,0,0,1-.958,4.619,5.2,5.2,0,0,1-4.221,1.927,7.5,7.5,0,0,1-1.224-.1,21.326,21.326,0,0,0-3.346-.363c-2.167,0-2.267.622-2.333,1.035a2.4,2.4,0,0,1-2.365,2.017l-.1,0-19.532-.781a2.4,2.4,0,0,1-1.644-4.042c.711-.751,1.53-2.993,1.65-6.14.124-3.245-.567-5.235-1.03-5.728-2.922-3.105-3.952-9.18-4.06-9.863a2.375,2.375,0,0,1-.028-.309A19.853,19.853,0,0,1,38.793,3.169,30.271,30.271,0,0,1,51.562,0" transform="translate(-28.739 0)" fill="#0b77d6"/>
        <path id="패스_4417" data-name="패스 4417" d="M63.7,76.045a1.2,1.2,0,0,0,.188-2.381c-.073-.012-7.267-1.229-11.252-6.57a1.2,1.2,0,0,0-1.921,1.432c4.578,6.137,12.461,7.45,12.795,7.5a1.258,1.258,0,0,0,.189.015" transform="translate(-32.546 -30.808)" fill="#0b77d6"/>
        <path id="패스_4418" data-name="패스 4418" d="M1.2,75.688a1.2,1.2,0,0,0,.585-.153,19.511,19.511,0,0,0,7.47-26.529,1.2,1.2,0,0,0-2.09,1.172A17.112,17.112,0,0,1,.612,73.444,1.2,1.2,0,0,0,1.2,75.688" transform="translate(47.737 -22.382)" fill="#0b77d6"/>
        <path id="패스_4419" data-name="패스 4419" d="M1.2,75.688a1.2,1.2,0,0,0,.585-.153,19.511,19.511,0,0,0,7.47-26.529,1.2,1.2,0,0,0-2.09,1.172A17.112,17.112,0,0,1,.612,73.444,1.2,1.2,0,0,0,1.2,75.688" transform="translate(47.737 -22.382)" fill="#0b77d6"/>
        <path id="패스_4420" data-name="패스 4420" d="M10.812,73.351A1.2,1.2,0,0,0,11.4,73.2a14.31,14.31,0,0,0,5.486-19.481,1.2,1.2,0,1,0-2.089,1.171,11.914,11.914,0,0,1-4.568,16.22,1.2,1.2,0,0,0,.587,2.244" transform="translate(35.593 -24.56)" fill="#0b77d6"/>
        <path id="패스_4421" data-name="패스 4421" d="M21.1,70.859a1.2,1.2,0,0,0,.585-.153,8.8,8.8,0,0,0,3.369-11.967,1.2,1.2,0,0,0-2.09,1.172,6.4,6.4,0,0,1-2.451,8.7,1.2,1.2,0,0,0,.587,2.244" transform="translate(22.604 -26.883)" fill="#0b77d6"/>
        <path id="패스_4422" data-name="패스 4422" d="M10.812,73.351A1.2,1.2,0,0,0,11.4,73.2a14.31,14.31,0,0,0,5.486-19.481,1.2,1.2,0,1,0-2.089,1.171,11.914,11.914,0,0,1-4.568,16.22,1.2,1.2,0,0,0,.587,2.244" transform="translate(35.593 -24.56)" fill="#0b77d6"/>
        <path id="패스_4423" data-name="패스 4423" d="M21.1,70.859a1.2,1.2,0,0,0,.585-.153,8.8,8.8,0,0,0,3.369-11.967,1.2,1.2,0,0,0-2.09,1.172,6.4,6.4,0,0,1-2.451,8.7,1.2,1.2,0,0,0,.587,2.244" transform="translate(22.604 -26.883)" fill="#0b77d6"/>
      </g>
    </g>
  </g>
</svg>
