<svg xmlns="http://www.w3.org/2000/svg" xmlns:xlink="http://www.w3.org/1999/xlink" width="98" height="98" viewBox="0 0 98 98">
  <defs>
    <clipPath id="clip-path">
      <rect id="사각형_3101" data-name="사각형 3101" width="46.026" height="67.166" fill="#0b77d6"/>
    </clipPath>
  </defs>
  <g id="watch_01_ico_03" transform="translate(14304 2962)">
    <circle id="타원_626" data-name="타원 626" cx="49" cy="49" r="49" transform="translate(-14304 -2962)" fill="#fff"/>
    <g id="그룹_2513" data-name="그룹 2513" transform="translate(-14278.014 -2946.583)" clip-path="url(#clip-path)">
      <path id="패스_4479" data-name="패스 4479" d="M10.9,58.711a1.07,1.07,0,0,1-1.07-1.07V1.155a1.07,1.07,0,1,1,2.139,0V57.641a1.07,1.07,0,0,1-1.07,1.07" transform="translate(-1.418 -0.012)" fill="#0b77d6"/>
      <path id="패스_4480" data-name="패스 4480" d="M25.973,18.671a15.023,15.023,0,0,1-6.24-1.39c-5.44-2.465-7.87.7-7.971.84a1.07,1.07,0,0,1-1.737-1.248c.033-.048,3.492-4.757,10.592-1.54a12.079,12.079,0,0,0,8.986.616V3.976a14.415,14.415,0,0,1-9.87-.9c-5.512-2.5-7.941.8-7.965.832a1.07,1.07,0,1,1-1.743-1.241c.034-.048,3.491-4.757,10.592-1.539A11.686,11.686,0,0,0,30.2,1.5a1.071,1.071,0,0,1,1.547.957v14.21a1.071,1.071,0,0,1-.588.955,12.29,12.29,0,0,1-5.181,1.05" transform="translate(-1.418 0)" fill="#0b77d6"/>
      <path id="패스_4481" data-name="패스 4481" d="M23.013,75.276C9.893,75.276,0,71.175,0,65.739S9.893,56.2,23.013,56.2s23.014,4.1,23.014,9.538-9.894,9.537-23.014,9.537m0-16.935c-12.3,0-20.873,3.9-20.873,7.4s8.573,7.4,20.873,7.4,20.874-3.9,20.874-7.4-8.573-7.4-20.874-7.4" transform="translate(0 -8.109)" fill="#0b77d6"/>
      <path id="패스_4482" data-name="패스 4482" d="M16.9,70.162c-3.409,0-7.078-1.06-7.078-3.388S13.5,63.386,16.9,63.386s7.077,1.06,7.077,3.389-3.668,3.388-7.077,3.388m0-4.637c-3.119,0-4.8.922-4.944,1.29.144.286,1.826,1.208,4.944,1.208,3.008,0,4.68-.859,4.923-1.248-.243-.39-1.914-1.249-4.923-1.249m4.943,1.29h0Z" transform="translate(-1.418 -9.146)" fill="#0b77d6"/>
    </g>
  </g>
</svg>
