<svg xmlns="http://www.w3.org/2000/svg" xmlns:xlink="http://www.w3.org/1999/xlink" width="98" height="98" viewBox="0 0 98 98">
  <defs>
    <clipPath id="clip-path">
      <rect id="사각형_3017" data-name="사각형 3017" width="52.977" height="67.726" fill="#0b77d6"/>
    </clipPath>
  </defs>
  <g id="watch_01_ico_02" transform="translate(14441 2980)">
    <circle id="타원_625" data-name="타원 625" cx="49" cy="49" r="49" transform="translate(-14441 -2980)" fill="#fff"/>
    <g id="그룹_2510" data-name="그룹 2510" transform="translate(-14417 -2966.863)">
      <g id="그룹_2223" data-name="그룹 2223" clip-path="url(#clip-path)">
        <path id="패스_4387" data-name="패스 4387" d="M1.065,67.976A1.065,1.065,0,0,1,0,66.911v-38.4a1.065,1.065,0,0,1,2.13,0v38.4a1.065,1.065,0,0,1-1.065,1.065" transform="translate(0 -4.065)" fill="#0b77d6"/>
        <path id="패스_4388" data-name="패스 4388" d="M1.066,47.815a1.065,1.065,0,0,1-.509-2l13.535-7.33L.557,31.153a1.065,1.065,0,1,1,1.015-1.872l15.264,8.267a1.065,1.065,0,0,1,0,1.872L1.573,47.686a1.06,1.06,0,0,1-.507.129" transform="translate(0 -4.317)" fill="#0b77d6"/>
        <path id="패스_4389" data-name="패스 4389" d="M60.751,50.251a1.065,1.065,0,0,1-1.065-1.065V15.83a1.065,1.065,0,1,1,2.13,0V49.186a1.065,1.065,0,0,1-1.065,1.065" transform="translate(-8.839 -2.187)" fill="#0b77d6"/>
        <path id="패스_4390" data-name="패스 4390" d="M58.445,32.736a1.06,1.06,0,0,1-.507-.129l-13.26-7.182a1.065,1.065,0,0,1,0-1.872l13.26-7.182a1.065,1.065,0,1,1,1.015,1.872L47.422,24.489l11.531,6.245a1.065,1.065,0,0,1-.509,2" transform="translate(-6.534 -2.405)" fill="#0b77d6"/>
        <path id="패스_4391" data-name="패스 4391" d="M18.611,25.222a1.065,1.065,0,0,1-1.065-1.065V1.065a1.065,1.065,0,0,1,2.13,0V24.157a1.065,1.065,0,0,1-1.065,1.065" transform="translate(-2.598)" fill="#0b77d6"/>
        <path id="패스_4392" data-name="패스 4392" d="M18.612,13.013a1.065,1.065,0,0,1-.509-2l7.382-4-7.382-4a1.065,1.065,0,1,1,1.015-1.872l9.11,4.933a1.066,1.066,0,0,1,0,1.873l-9.11,4.933a1.06,1.06,0,0,1-.507.129" transform="translate(-2.598 -0.15)" fill="#0b77d6"/>
        <path id="패스_4393" data-name="패스 4393" d="M9.092,78.139C4.713,78.139,0,76.914,0,74.226s4.713-3.914,9.092-3.914,9.092,1.224,9.092,3.914-4.713,3.914-9.092,3.914m0-5.7c-4.379,0-6.865,1.253-6.962,1.788.1.526,2.584,1.78,6.962,1.78s6.852-1.247,6.962-1.784c-.109-.537-2.594-1.784-6.962-1.784m6.963,1.788h0Z" transform="translate(0 -10.413)" fill="#0b77d6"/>
        <path id="패스_4394" data-name="패스 4394" d="M52.692,58.588c-3.393,0-7.045-1.052-7.045-3.363s3.652-3.363,7.045-3.363,7.044,1.052,7.044,3.363-3.652,3.363-7.044,3.363m-4.9-3.363c.251.388,1.918,1.234,4.9,1.234s4.647-.846,4.9-1.234c-.251-.388-1.918-1.234-4.9-1.234s-4.647.846-4.9,1.234m9.82.043h0Z" transform="translate(-6.76 -7.68)" fill="#0b77d6"/>
        <path id="패스_4395" data-name="패스 4395" d="M23.683,31.359c-2.955,0-6.137-.971-6.137-3.1s3.182-3.1,6.137-3.1,6.136.971,6.136,3.1-3.18,3.1-6.136,3.1m-3.967-3.1c.307.331,1.687.974,3.967.974s3.66-.642,3.967-.974c-.308-.331-1.686-.974-3.967-.974s-3.661.642-3.967.974m7.987.072h0Z" transform="translate(-2.598 -3.725)" fill="#0b77d6"/>
        <path id="패스_4396" data-name="패스 4396" d="M26.6,78.7a1.065,1.065,0,0,1-.037-2.129,42.659,42.659,0,0,0,4.957-.455,1.065,1.065,0,0,1,.325,2.105,44.866,44.866,0,0,1-5.207.478H26.6" transform="translate(-3.781 -11.271)" fill="#0b77d6"/>
        <path id="패스_4397" data-name="패스 4397" d="M50.479,69.231a1.065,1.065,0,0,1-.743-1.828,22.539,22.539,0,0,0,3.1-3.761,1.065,1.065,0,0,1,1.779,1.171,24.7,24.7,0,0,1-3.391,4.117,1.064,1.064,0,0,1-.743.3" transform="translate(-7.318 -9.354)" fill="#0b77d6"/>
        <path id="패스_4398" data-name="패스 4398" d="M51.307,43.054a1.065,1.065,0,0,1-1.012-.736,10.754,10.754,0,0,0-2.426-3.54A1.065,1.065,0,1,1,49.4,37.3a12.44,12.44,0,0,1,2.92,4.367,1.065,1.065,0,0,1-1.015,1.388" transform="translate(-7.045 -5.476)" fill="#0b77d6"/>
        <path id="패스_4399" data-name="패스 4399" d="M41.7,34.218a1.069,1.069,0,0,1-.5-.126,29.208,29.208,0,0,0-4.249-1.835,1.065,1.065,0,0,1,.693-2.014,31.443,31.443,0,0,1,4.561,1.97,1.065,1.065,0,0,1-.5,2" transform="translate(-5.365 -4.47)" fill="#0b77d6"/>
        <path id="패스_4400" data-name="패스 4400" d="M39.066,76.327a1.065,1.065,0,0,1-.384-2.058,42.683,42.683,0,0,0,4.533-2.056,1.065,1.065,0,1,1,1,1.883,44.8,44.8,0,0,1-4.761,2.159,1.051,1.051,0,0,1-.384.072" transform="translate(-5.628 -10.676)" fill="#0b77d6"/>
      </g>
    </g>
  </g>
</svg>
