<svg xmlns="http://www.w3.org/2000/svg" xmlns:xlink="http://www.w3.org/1999/xlink" width="98" height="98" viewBox="0 0 98 98">
  <defs>
    <clipPath id="clip-path">
      <rect id="사각형_3104" data-name="사각형 3104" width="69" height="69" transform="translate(0 0)" fill="#0b77d6"/>
    </clipPath>
  </defs>
  <g id="watch_01_ico_08" transform="translate(14375 2419)">
    <circle id="타원_631" data-name="타원 631" cx="49" cy="49" r="49" transform="translate(-14375 -2419)" fill="#fff"/>
    <g id="그룹_2523" data-name="그룹 2523" transform="translate(-14360 -2405)" clip-path="url(#clip-path)">
      <path id="패스_4492" data-name="패스 4492" d="M34.5,69A34.5,34.5,0,1,1,69,34.5,34.539,34.539,0,0,1,34.5,69m0-66.909A32.409,32.409,0,1,0,66.909,34.5,32.445,32.445,0,0,0,34.5,2.091" transform="translate(0 0)" fill="#0b77d6"/>
      <path id="패스_4493" data-name="패스 4493" d="M147.53,175.073a27.53,27.53,0,1,1,27.53-27.53,27.561,27.561,0,0,1-27.53,27.53m0-52.97a25.439,25.439,0,1,0,25.439,25.439A25.468,25.468,0,0,0,147.53,122.1" transform="translate(-113.03 -113.042)" fill="#0b77d6"/>
      <path id="패스_4494" data-name="패스 4494" d="M495.931,365.309a1.043,1.043,0,0,1-.739-.306L484.53,354.341a1.046,1.046,0,0,1,.324-1.7l18.78-8.119a1.046,1.046,0,0,1,1.375,1.375l-8.119,18.779a1.046,1.046,0,0,1-.764.613,1.06,1.06,0,0,1-.2.018M487.1,353.951l8.486,8.485,6.461-14.946Z" transform="translate(-456.1 -324.433)" fill="#0b77d6"/>
      <path id="패스_4495" data-name="패스 4495" d="M345.48,505.115a1.046,1.046,0,0,1-.96-1.461l8.119-18.779a1.046,1.046,0,0,1,.764-.613,1.057,1.057,0,0,1,.935.288L365,495.212a1.046,1.046,0,0,1-.324,1.7l-18.78,8.119a1.043,1.043,0,0,1-.415.086m8.467-18-6.461,14.946,14.947-6.461Z" transform="translate(-324.43 -456.12)" fill="#0b77d6"/>
      <path id="패스_4496" data-name="패스 4496" d="M577.045,128.058A1.046,1.046,0,0,1,576,127.012v-5.955a1.045,1.045,0,0,1,2.091,0v5.955a1.046,1.046,0,0,1-1.045,1.045" transform="translate(-542.545 -113.042)" fill="#0b77d6"/>
      <path id="패스_4497" data-name="패스 4497" d="M577.045,937.507A1.046,1.046,0,0,1,576,936.461v-5.955a1.045,1.045,0,0,1,2.091,0v5.955a1.046,1.046,0,0,1-1.045,1.045" transform="translate(-542.545 -875.477)" fill="#0b77d6"/>
      <path id="패스_4498" data-name="패스 4498" d="M936.462,578.091h-5.956a1.045,1.045,0,0,1,0-2.091h5.956a1.045,1.045,0,0,1,0,2.091" transform="translate(-875.477 -542.545)" fill="#0b77d6"/>
      <path id="패스_4499" data-name="패스 4499" d="M127,578.091h-5.956a1.045,1.045,0,0,1,0-2.091H127a1.045,1.045,0,0,1,0,2.091" transform="translate(-113.03 -542.545)" fill="#0b77d6"/>
    </g>
  </g>
</svg>
